<svg version="1.1" id="Layer_1" xmlns="http://www.w3.org/2000/svg" x="0" y="0" viewBox="0 0 256 256" style="enable-background:new 0 0 256 256" xml:space="preserve"><style>.st2{fill:#edaf85}.st6{fill:#1c868e}.st7{fill:#40c4df}.st8{fill:#491352}</style><path d="M253.5 10.3v75.03a6.23 6.23 0 0 1-6.23 6.23h-79.28l-13.4 24.74c-2.31 4.26-8.78 2.62-8.78-2.23V91.56h-5.58a6.23 6.23 0 0 1-6.23-6.23V10.3a6.23 6.23 0 0 1 6.23-6.23h107.04a6.23 6.23 0 0 1 6.23 6.23z" style="fill:#d8d6d7"/><path d="M253.5 10.3v75.03a6.23 6.23 0 0 1-6.23 6.23h-83.62c-3.45 0-6.24-2.79-6.24-6.23V10.3c0-3.44 2.79-6.23 6.24-6.23h83.62a6.23 6.23 0 0 1 6.23 6.23z" style="fill:#fff"/><path d="M123.664 241.227v3.71c0 2.76-2.24 5-5 5H8.324c-2.76 0-5-2.24-5-5v-3.71c0-33.23 26.94-60.17 60.17-60.17 2.77 0 5.5.19 8.17.55 13.35 1.81 25.31 8 34.38 17.07 10.89 10.89 17.62 25.93 17.62 42.55z" style="fill:#d73735"/><path d="M123.664 241.227v3.71c0 2.76-2.24 5-5 5h-94c-2.76 0-5-2.24-5-5v-3.71c0-30.46 22.64-55.64 52-59.62 13.35 1.81 25.31 8 34.38 17.07 10.89 10.89 17.62 25.93 17.62 42.55z" style="fill:#f85252"/><path class="st2" d="M63.494 201.802c-7.112 0-12.878-5.766-12.878-12.878v-28.621h25.756v28.621c0 7.113-5.766 12.878-12.878 12.878zM11.768 136.941c0 6.163 5.042 11.205 11.205 11.205h4.589v-22.409h-4.589c-6.163-.001-11.205 5.041-11.205 11.204zM104.014 125.736h-4.589v22.409h4.589c6.163 0 11.205-5.042 11.205-11.205 0-6.162-5.042-11.204-11.205-11.204z"/><path class="st2" d="M100.464 100.987v43.06c0 18.14-13.23 33.33-30.53 36.4-2.09.38-4.24.57-6.44.57-20.34 0-36.97-16.63-36.97-36.97v-43.06c0-2.75 2.25-5 5-5h63.94c2.75 0 5 2.25 5 5z"/><path d="M100.464 100.987v43.06c0 18.14-13.23 33.33-30.53 36.4-17.3-3.06-30.54-18.25-30.54-36.4v-43.06c0-2.75 2.25-5 5-5h51.07c2.75 0 5 2.25 5 5z" style="fill:#f7c09a"/><path class="st6" d="M36.104 94.087v22.39c0 5.11-4.15 9.26-9.26 9.26-5.11 0-9.26-4.15-9.26-9.26v-22.39c0-5.11 4.15-9.26 9.26-9.26 2.55 0 4.87 1.04 6.55 2.71a9.26 9.26 0 0 1 2.71 6.55z"/><path class="st7" d="M36.104 94.087v10.22c0 5.11-4.15 9.26-9.26 9.26-5.11 0-9.26-4.15-9.26-9.26v-10.22c0-5.11 4.15-9.26 9.26-9.26 2.55 0 4.87 1.04 6.55 2.71a9.26 9.26 0 0 1 2.71 6.55z"/><path class="st7" d="m121.374 65.417-2.1 7.32-4.8 16.74c-4.08 14.25-18.11 24.51-32.77 22.29l-42.32-4.86a3.727 3.727 0 0 1-3.23-3.03c-.03-.21-.05-.43-.05-.65v-9.14c0-11.99 9.72-21.71 21.71-21.71h32.47c9.77 0 19.2-3.63 26.44-10.2.59-.54 1.27-.77 1.92-.77 1.87 0 3.58 1.89 2.73 4.01z"/><path class="st6" d="m119.274 72.737-4.8 16.74c-4.08 14.25-18.11 24.51-32.77 22.29l-42.32-4.86a3.727 3.727 0 0 1-3.23-3.03c.75-11.31 10.16-20.25 21.66-20.25h32.47c9.77 0 19.2-3.63 26.44-10.2.59-.54 1.27-.77 1.92-.77.21 0 .42.02.63.08z"/><path class="st8" d="M246.86 3.06H139.82c-4.54 0-8.23 3.7-8.23 8.24v75.03c0 4.53 3.69 8.23 8.23 8.23h3.58v20.51c0 6.947 9.249 9.241 12.54 3.18l12.83-23.69h78.09c4.54 0 8.23-3.7 8.23-8.23V11.3c0-4.54-3.69-8.24-8.23-8.24zm4.23 83.27c0 2.33-1.9 4.23-4.23 4.23h-79.28c-1.685 0-.804-.725-15.16 25.78-1.33 2.459-5.02 1.491-5.02-1.27V92.56c0-1.11-.89-2-2-2h-5.58c-2.33 0-4.23-1.9-4.23-4.23V11.3c0-2.34 1.9-4.24 4.23-4.24h107.04c2.33 0 4.23 1.9 4.23 4.24v75.03z"/><path class="st8" d="M218.109 27.343c-1.942-1.794-4.66 1.14-2.715 2.937l20.899 19.324-20.899 19.324c-1.941 1.794.77 4.734 2.715 2.938 24.474-22.629 23.131-21.036 23.131-22.261 0-1.243 1.222.253-23.131-22.262zM168.567 27.343c-24.499 22.651-23.131 21.047-23.131 22.261 0 .558.232 1.09.643 1.468 24.368 22.531 22.731 21.324 23.845 21.324 1.811 0 2.695-2.234 1.358-3.469l-20.899-19.324 20.899-19.324c1.945-1.795-.777-4.732-2.715-2.936zM203.61 27.811l-24.009 41.585c-1.32 2.288 2.139 4.292 3.465 2l24.009-41.585c1.32-2.289-2.14-4.291-3.465-2z"/><circle class="st8" cx="44.874" cy="134.976" r="4.954"/><path class="st8" d="M81.29 139.929a4.954 4.954 0 1 0 0-9.908 4.954 4.954 0 0 0 0 9.908zM70.967 147.526a2 2 0 0 0-2 2c0 3.245-2.64 5.885-5.885 5.885s-5.885-2.64-5.885-5.885c0-2.642-4-2.646-4 0 0 5.451 4.435 9.885 9.885 9.885 9.191 0 12.411-11.885 7.885-11.885z"/><path class="st8" d="M77.96 181.85v-.79c12.319-5.1 21.478-16.358 23.609-29.916h2.033c7.281 0 13.205-5.923 13.205-13.205s-5.924-13.205-13.205-13.205h-1.552c0-13.863.094-13.419-.27-14.674 6.64-4.25 11.89-10.95 14.21-19.04l6.87-23.97c1.796-4.783-4.067-8.829-7.9-5.35a37.274 37.274 0 0 1-25.09 9.68H57.4c-10.48 0-19.4 6.83-22.51 16.28-6.829-7.753-19.72-2.943-19.72 7.42 0 24.02-.961 25.877 3.272 30.321-5.268 1.736-9.085 6.696-9.085 12.538 0 7.281 5.923 13.205 13.204 13.205h2.03c2.131 13.558 11.29 24.816 23.609 29.916v.8C21.08 188.55.91 213.08.91 242.23v3.71c0 3.86 3.14 7 7 7h110.34c3.86 0 7-3.14 7-7v-3.71c0-29.337-20.115-53.636-47.29-60.38zm25.643-53.116c5.076 0 9.205 4.129 9.205 9.205 0 5.075-4.129 9.205-9.205 9.205h-1.609c.014-.151.056-1.926.056-18.41h1.553zM37.69 95.08c0-10.86 8.84-19.7 19.71-19.7h32.47c10.29 0 20.16-3.81 27.78-10.72.664-.593 1.819-.087 1.39 1.2l-6.9 24.06c-3.92 13.7-17.34 22.86-30.62 20.86l-42.32-4.86a1.71 1.71 0 0 1-1.51-1.7v-9.14zm-13.58 33.654c0 16.484.043 18.259.056 18.41H22.56c-11.516 0-13.513-18.41 1.55-18.41zm-4.94-11.254v-22.4c0-4 3.26-7.25 7.26-7.25s7.26 3.25 7.26 7.25v22.4c0 4-3.26 7.25-7.26 7.25s-7.26-3.25-7.26-7.25zm8.94 27.57V128.6c5.42-.81 9.58-5.49 9.58-11.12v-7.81c.825.25-2.239-.158 43.3 5.08 5.653.848 11.577-.038 17.06-2.63v32.93c0 19.28-15.69 34.97-34.97 34.97s-34.97-15.69-34.97-34.97zm45.85 37.42v7.46c0 6-4.88 10.88-10.88 10.88s-10.88-4.88-10.88-10.88v-7.46a38.945 38.945 0 0 0 21.76 0zm47.29 63.47c0 1.65-1.34 3-3 3H7.91c-1.65 0-3-1.35-3-3v-3.71c0-26.94 18.4-49.65 43.29-56.24v3.94c0 8.2 6.68 14.88 14.88 14.88 8.21 0 14.88-6.68 14.88-14.88v-3.95c24.802 6.59 43.29 29.029 43.29 56.25v3.71z"/></svg>