<?xml version="1.0" encoding="utf-8"?>
<!-- Generator: Adobe Illustrator 24.0.0, SVG Export Plug-In . SVG Version: 6.00 Build 0)  -->
<svg version="1.1" id="Layer_1" xmlns="http://www.w3.org/2000/svg" xmlns:xlink="http://www.w3.org/1999/xlink" x="0px" y="0px"
	 viewBox="0 0 256 256" style="enable-background:new 0 0 256 256;" xml:space="preserve">
<style type="text/css">
	.st0{fill:#382B73;}
	.st1{fill:#291B4A;}
	.st2{fill:#ED9ABC;}
	.st3{fill:#E54890;}
	.st4{fill:#D3D3D3;}
	.st5{fill:#EBE7F2;}
	.st6{fill:#F9B087;}
	.st7{fill:#FF8639;}
	.st8{fill:#65C1D6;}
	.st9{fill:#149CB2;}
</style>
<g>
	<g>
		<g>
			<g>
				<g>
					<circle class="st0" cx="128" cy="128" r="119.4"/>
				</g>
			</g>
		</g>
	</g>
	<g>
		<g>
			<g>
				<g>
					<path class="st1" d="M72.956,180.017c1.381,0,2.5-1.119,2.5-2.5v-17.063c0-1.381-1.119-2.5-2.5-2.5H55.894
						c-1.381,0-2.5,1.119-2.5,2.5v17.063c0,1.381,1.119,2.5,2.5,2.5H72.956z M58.394,162.954h12.063v12.063H58.394V162.954z"/>
				</g>
			</g>
		</g>
		<g>
			<g>
				<g>
					<path class="st1" d="M112.726,180.017h17.063c0.866,0,1.671-0.449,2.127-1.186c0.455-0.737,0.497-1.658,0.109-2.433
						l-8.531-17.063c-0.424-0.847-1.289-1.382-2.236-1.382s-1.813,0.535-2.236,1.382l-8.531,17.063
						c-0.388,0.775-0.346,1.695,0.109,2.433C111.055,179.568,111.859,180.017,112.726,180.017z M121.257,166.044l4.486,8.973h-8.973
						L121.257,166.044z"/>
				</g>
			</g>
		</g>
		<g>
			<g>
				<g>
					<path class="st1" d="M189.12,168.985c0-6.083-4.948-11.031-11.031-11.031s-11.031,4.949-11.031,11.031
						c0,6.083,4.948,11.032,11.031,11.032S189.12,175.068,189.12,168.985z M172.058,168.985c0-3.326,2.706-6.031,6.031-6.031
						s6.031,2.706,6.031,6.031s-2.706,6.032-6.031,6.032S172.058,172.311,172.058,168.985z"/>
				</g>
			</g>
		</g>
		<g>
			<g>
				<g>
					<path class="st1" d="M86.442,193.86c1.381,0,2.5-1.119,2.5-2.5s-1.119-2.5-2.5-2.5H55.894c-1.381,0-2.5,1.119-2.5,2.5
						s1.119,2.5,2.5,2.5H86.442z"/>
				</g>
			</g>
		</g>
		<g>
			<g>
				<g>
					<path class="st1" d="M86.442,207.703c1.381,0,2.5-1.119,2.5-2.5s-1.119-2.5-2.5-2.5H55.894c-1.381,0-2.5,1.119-2.5,2.5
						s1.119,2.5,2.5,2.5H86.442z"/>
				</g>
			</g>
		</g>
		<g>
			<g>
				<g>
					<path class="st1" d="M143.274,193.86c1.381,0,2.5-1.119,2.5-2.5s-1.119-2.5-2.5-2.5h-30.549c-1.381,0-2.5,1.119-2.5,2.5
						s1.119,2.5,2.5,2.5H143.274z"/>
				</g>
			</g>
		</g>
		<g>
			<g>
				<g>
					<path class="st1" d="M143.274,207.703c1.381,0,2.5-1.119,2.5-2.5s-1.119-2.5-2.5-2.5h-30.549c-1.381,0-2.5,1.119-2.5,2.5
						s1.119,2.5,2.5,2.5H143.274z"/>
				</g>
			</g>
		</g>
		<g>
			<g>
				<g>
					<path class="st1" d="M200.106,193.86c1.381,0,2.5-1.119,2.5-2.5s-1.119-2.5-2.5-2.5h-30.549c-1.381,0-2.5,1.119-2.5,2.5
						s1.119,2.5,2.5,2.5H200.106z"/>
				</g>
			</g>
		</g>
		<g>
			<g>
				<g>
					<path class="st1" d="M200.106,207.703c1.381,0,2.5-1.119,2.5-2.5s-1.119-2.5-2.5-2.5h-30.549c-1.381,0-2.5,1.119-2.5,2.5
						s1.119,2.5,2.5,2.5H200.106z"/>
				</g>
			</g>
		</g>
		<g>
			<g>
				<g>
					<path class="st1" d="M57.499,108.688c-0.424-0.847-1.289-1.382-2.236-1.382s-1.813,0.535-2.236,1.382l-6.691,13.382
						c-0.388,0.775-0.346,1.695,0.109,2.433c0.456,0.737,1.261,1.186,2.127,1.186h13.383c0.866,0,1.671-0.449,2.127-1.186
						c0.455-0.737,0.497-1.658,0.109-2.433l-1.582-3.165h23.677c8.169,14.63,23.802,24.55,41.715,24.55
						c23.322,0,42.779-16.81,46.924-38.947H191.9c1.093,3.855,4.636,6.691,8.837,6.691c5.068,0,9.191-4.123,9.191-9.191
						c0-5.068-4.123-9.191-9.191-9.191c-4.201,0-7.744,2.836-8.837,6.691h-16.315c0.1-1.257,0.165-2.522,0.165-3.804
						c0-26.33-21.421-47.751-47.751-47.751c-16.875,0-31.722,8.807-40.217,22.057H64.956v-4.191c0-1.381-1.119-2.5-2.5-2.5H49.073
						c-1.381,0-2.5,1.119-2.5,2.5v13.383c0,1.381,1.119,2.5,2.5,2.5h13.383c1.381,0,2.5-1.119,2.5-2.5v-4.191H84.97
						c-3.025,6.264-4.721,13.284-4.721,20.694c0,6.443,1.29,12.588,3.613,18.201H60.108L57.499,108.688z M52.616,120.688
						l2.646-5.292l2.646,5.292H52.616z M200.737,97.818c2.312,0,4.191,1.88,4.191,4.191s-1.88,4.191-4.191,4.191
						s-4.191-1.88-4.191-4.191S198.426,97.818,200.737,97.818z M59.956,76.702h-8.383v-8.383h8.383V76.702z M170.751,95.705
						c0,1.283-0.067,2.55-0.178,3.804h-17.108c-1.381,0-2.5,1.119-2.5,2.5s1.119,2.5,2.5,2.5h16.37
						c-3.904,18.572-19.897,32.741-39.335,33.868v-41.91l23.348-34.784C164.111,69.498,170.751,81.838,170.751,95.705z
						 M90.608,75.011h26.572c1.381,0,2.5-1.119,2.5-2.5s-1.119-2.5-2.5-2.5H93.857c7.809-10.352,20.207-17.057,34.143-17.057
						c7.917,0,15.333,2.171,21.699,5.938l-23.032,34.313H85.328C85.709,86.635,87.58,80.46,90.608,75.011z M125.5,98.205v40.172
						c-13.985-0.811-26.179-8.375-33.379-19.471h17.835c1.381,0,2.5-1.119,2.5-2.5s-1.119-2.5-2.5-2.5H89.328
						c-2.274-4.813-3.676-10.114-4-15.701H125.5z"/>
				</g>
			</g>
		</g>
	</g>
	<g>
		<g>
			<g>
				<g>
					<g>
						<path class="st2" d="M128,139.456c26.33,0,47.751-21.421,47.751-47.751S154.33,43.954,128,43.954S80.249,65.375,80.249,91.705
							S101.67,139.456,128,139.456z M128,48.954c23.573,0,42.751,19.178,42.751,42.751S151.573,134.456,128,134.456
							s-42.751-19.178-42.751-42.751S104.427,48.954,128,48.954z"/>
					</g>
				</g>
			</g>
			<g>
				<g>
					<g>
						<path class="st2" d="M83.644,94.205H128c0.833,0,1.611-0.415,2.076-1.107l24.95-37.171c0.77-1.146,0.464-2.699-0.683-3.469
							c-1.146-0.768-2.7-0.464-3.47,0.683l-24.207,36.064H83.644c-1.381,0-2.5,1.119-2.5,2.5S82.263,94.205,83.644,94.205z"/>
					</g>
				</g>
			</g>
			<g>
				<g>
					<g>
						<path class="st2" d="M130.5,136.296V91.705c0-1.381-1.119-2.5-2.5-2.5s-2.5,1.119-2.5,2.5v44.591c0,1.381,1.119,2.5,2.5,2.5
							S130.5,137.677,130.5,136.296z"/>
					</g>
				</g>
			</g>
		</g>
		<g>
			<g>
				<g>
					<path class="st3" d="M129,92.466v41.91c0,0.413,0.17,0.808,0.471,1.091c0.279,0.263,0.648,0.409,1.029,0.409
						c0.029,0,0.058-0.001,0.087-0.002c23.363-1.355,41.664-20.756,41.664-44.17c0-13.913-6.376-26.748-17.494-35.216
						c-0.263-0.2-0.583-0.307-0.909-0.307c-0.082,0-0.164,0.007-0.245,0.02c-0.408,0.068-0.77,0.301-1,0.644L129.255,91.63
						C129.089,91.877,129,92.168,129,92.466z M130.5,92.466l23.348-34.784c10.263,7.816,16.903,20.156,16.903,34.022
						c0,22.733-17.838,41.373-40.251,42.672V92.466z"/>
					<path class="st3" d="M125.413,135.874c0.029,0.002,0.058,0.002,0.087,0.002c0.382,0,0.75-0.146,1.029-0.409
						c0.3-0.283,0.471-0.678,0.471-1.091V94.205c0-0.828-0.672-1.5-1.5-1.5H85.328c-0.413,0-0.808,0.17-1.091,0.47
						s-0.43,0.704-0.407,1.116C85.13,116.698,103.006,134.575,125.413,135.874z M125.5,94.205v40.172
						c-21.586-1.252-38.921-18.587-40.172-40.172H125.5z"/>
					<path class="st3" d="M128,139.456c26.33,0,47.751-21.421,47.751-47.751S154.33,43.954,128,43.954S80.249,65.375,80.249,91.705
						S101.67,139.456,128,139.456z M128,45.454c25.503,0,46.251,20.748,46.251,46.251S153.503,137.956,128,137.956
						c-25.503,0-46.251-20.748-46.251-46.251S102.497,45.454,128,45.454z"/>
					<path class="st3" d="M85.328,90.705h41.339c0.5,0,0.967-0.249,1.245-0.664l23.032-34.313c0.23-0.343,0.309-0.765,0.218-1.167
						c-0.091-0.402-0.344-0.75-0.699-0.96c-6.796-4.021-14.563-6.146-22.463-6.146c-23.413,0-42.815,18.301-44.17,41.664
						c-0.024,0.412,0.123,0.816,0.407,1.116S84.915,90.705,85.328,90.705z M128,48.954c7.917,0,15.333,2.171,21.699,5.938
						l-23.032,34.313H85.328C86.627,66.792,105.266,48.954,128,48.954z"/>
				</g>
			</g>
		</g>
		<g>
			<g>
				<g>
					<g>
						<g>
							<path class="st6" d="M72.956,176.017c1.381,0,2.5-1.119,2.5-2.5v-17.063c0-1.381-1.119-2.5-2.5-2.5H55.894
								c-1.381,0-2.5,1.119-2.5,2.5v17.063c0,1.381,1.119,2.5,2.5,2.5H72.956z M58.394,158.954h12.063v12.063H58.394V158.954z"/>
						</g>
					</g>
				</g>
				<g>
					<g>
						<g>
							<path class="st6" d="M112.726,176.017h17.063c0.866,0,1.671-0.449,2.127-1.186c0.455-0.737,0.497-1.658,0.109-2.433
								l-8.531-17.063c-0.424-0.847-1.289-1.382-2.236-1.382s-1.813,0.535-2.236,1.382l-8.531,17.063
								c-0.388,0.775-0.346,1.695,0.109,2.433C111.055,175.568,111.859,176.017,112.726,176.017z M121.257,162.044l4.486,8.973
								h-8.973L121.257,162.044z"/>
						</g>
					</g>
				</g>
				<g>
					<g>
						<g>
							<path class="st6" d="M189.12,164.985c0-6.083-4.948-11.031-11.031-11.031s-11.031,4.949-11.031,11.031
								c0,6.083,4.948,11.032,11.031,11.032S189.12,171.068,189.12,164.985z M172.058,164.985c0-3.326,2.706-6.031,6.031-6.031
								s6.031,2.706,6.031,6.031s-2.706,6.032-6.031,6.032S172.058,168.311,172.058,164.985z"/>
						</g>
					</g>
				</g>
			</g>
			<g>
				<g>
					<g>
						<path class="st6" d="M86.442,189.86c1.381,0,2.5-1.119,2.5-2.5s-1.119-2.5-2.5-2.5H55.894c-1.381,0-2.5,1.119-2.5,2.5
							s1.119,2.5,2.5,2.5H86.442z"/>
					</g>
				</g>
			</g>
			<g>
				<g>
					<g>
						<path class="st6" d="M86.442,203.703c1.381,0,2.5-1.119,2.5-2.5s-1.119-2.5-2.5-2.5H55.894c-1.381,0-2.5,1.119-2.5,2.5
							s1.119,2.5,2.5,2.5H86.442z"/>
					</g>
				</g>
			</g>
			<g>
				<g>
					<g>
						<path class="st6" d="M143.274,189.86c1.381,0,2.5-1.119,2.5-2.5s-1.119-2.5-2.5-2.5h-30.549c-1.381,0-2.5,1.119-2.5,2.5
							s1.119,2.5,2.5,2.5H143.274z"/>
					</g>
				</g>
			</g>
			<g>
				<g>
					<g>
						<path class="st6" d="M143.274,203.703c1.381,0,2.5-1.119,2.5-2.5s-1.119-2.5-2.5-2.5h-30.549c-1.381,0-2.5,1.119-2.5,2.5
							s1.119,2.5,2.5,2.5H143.274z"/>
					</g>
				</g>
			</g>
			<g>
				<g>
					<g>
						<path class="st6" d="M200.106,189.86c1.381,0,2.5-1.119,2.5-2.5s-1.119-2.5-2.5-2.5h-30.549c-1.381,0-2.5,1.119-2.5,2.5
							s1.119,2.5,2.5,2.5H200.106z"/>
					</g>
				</g>
			</g>
			<g>
				<g>
					<g>
						<path class="st6" d="M200.106,203.703c1.381,0,2.5-1.119,2.5-2.5s-1.119-2.5-2.5-2.5h-30.549c-1.381,0-2.5,1.119-2.5,2.5
							s1.119,2.5,2.5,2.5H200.106z"/>
					</g>
				</g>
			</g>
		</g>
		<g>
			<g>
				<g>
					<g>
						<path class="st7" d="M58.394,172.517h12.063c0.828,0,1.5-0.672,1.5-1.5v-12.063c0-0.828-0.672-1.5-1.5-1.5H58.394
							c-0.828,0-1.5,0.672-1.5,1.5v12.063C56.894,171.845,57.565,172.517,58.394,172.517z M58.394,158.954h12.063v12.063H58.394
							V158.954z"/>
						<path class="st7" d="M72.956,176.017c1.381,0,2.5-1.119,2.5-2.5v-17.063c0-1.381-1.119-2.5-2.5-2.5H55.894
							c-1.381,0-2.5,1.119-2.5,2.5v17.063c0,1.381,1.119,2.5,2.5,2.5H72.956z M54.894,173.517v-17.063c0-0.552,0.449-1,1-1h17.063
							c0.551,0,1,0.448,1,1v17.063c0,0.552-0.449,1-1,1H55.894C55.342,174.517,54.894,174.069,54.894,173.517z"/>
					</g>
				</g>
			</g>
			<g>
				<g>
					<g>
						<path class="st7" d="M112.726,176.017h17.063c0.866,0,1.671-0.449,2.127-1.186c0.455-0.737,0.497-1.658,0.109-2.433
							l-8.531-17.063c-0.424-0.847-1.289-1.382-2.236-1.382s-1.813,0.535-2.236,1.382l-8.531,17.063
							c-0.388,0.775-0.346,1.695,0.109,2.433C111.055,175.568,111.859,176.017,112.726,176.017z M111.831,173.07l8.531-17.063
							c0.171-0.341,0.514-0.553,0.895-0.553s0.724,0.212,0.895,0.553l8.531,17.063c0.156,0.312,0.139,0.676-0.043,0.972
							c-0.184,0.298-0.502,0.475-0.852,0.475h-17.063c-0.349,0-0.667-0.177-0.851-0.473
							C111.691,173.746,111.675,173.382,111.831,173.07z"/>
						<path class="st7" d="M116.771,172.517h8.973c0.52,0,1.003-0.269,1.276-0.711s0.298-0.994,0.066-1.459l-4.486-8.973
							c-0.254-0.508-0.773-0.829-1.342-0.829s-1.088,0.321-1.342,0.829l-4.486,8.973c-0.233,0.465-0.208,1.017,0.066,1.459
							S116.251,172.517,116.771,172.517z M121.257,162.044l4.486,8.973h-8.973L121.257,162.044z"/>
					</g>
				</g>
			</g>
			<g>
				<g>
					<g>
						<path class="st7" d="M185.62,164.985c0-4.153-3.379-7.531-7.531-7.531s-7.531,3.378-7.531,7.531
							c0,4.153,3.379,7.532,7.531,7.532S185.62,169.138,185.62,164.985z M172.058,164.985c0-3.326,2.706-6.031,6.031-6.031
							s6.031,2.706,6.031,6.031s-2.706,6.032-6.031,6.032S172.058,168.311,172.058,164.985z"/>
						<path class="st7" d="M189.12,164.985c0-6.083-4.948-11.031-11.031-11.031s-11.031,4.949-11.031,11.031
							c0,6.083,4.948,11.032,11.031,11.032S189.12,171.068,189.12,164.985z M168.558,164.985c0-5.256,4.276-9.531,9.531-9.531
							s9.531,4.276,9.531,9.531c0,5.256-4.276,9.532-9.531,9.532S168.558,170.241,168.558,164.985z"/>
					</g>
				</g>
			</g>
			<g>
				<g>
					<g>
						<path class="st7" d="M86.442,189.86c1.381,0,2.5-1.119,2.5-2.5s-1.119-2.5-2.5-2.5H55.894c-1.381,0-2.5,1.119-2.5,2.5
							s1.119,2.5,2.5,2.5H86.442z M54.894,187.36c0-0.552,0.449-1,1-1h30.549c0.551,0,1,0.448,1,1s-0.449,1-1,1H55.894
							C55.342,188.36,54.894,187.911,54.894,187.36z"/>
					</g>
				</g>
			</g>
			<g>
				<g>
					<g>
						<path class="st7" d="M86.442,203.703c1.381,0,2.5-1.119,2.5-2.5s-1.119-2.5-2.5-2.5H55.894c-1.381,0-2.5,1.119-2.5,2.5
							s1.119,2.5,2.5,2.5H86.442z M54.894,201.203c0-0.552,0.449-1,1-1h30.549c0.551,0,1,0.448,1,1s-0.449,1-1,1H55.894
							C55.342,202.203,54.894,201.754,54.894,201.203z"/>
					</g>
				</g>
			</g>
			<g>
				<g>
					<g>
						<path class="st7" d="M143.274,189.86c1.381,0,2.5-1.119,2.5-2.5s-1.119-2.5-2.5-2.5h-30.549c-1.381,0-2.5,1.119-2.5,2.5
							s1.119,2.5,2.5,2.5H143.274z M111.726,187.36c0-0.552,0.449-1,1-1h30.549c0.551,0,1,0.448,1,1s-0.449,1-1,1h-30.549
							C112.174,188.36,111.726,187.911,111.726,187.36z"/>
					</g>
				</g>
			</g>
			<g>
				<g>
					<g>
						<path class="st7" d="M143.274,203.703c1.381,0,2.5-1.119,2.5-2.5s-1.119-2.5-2.5-2.5h-30.549c-1.381,0-2.5,1.119-2.5,2.5
							s1.119,2.5,2.5,2.5H143.274z M111.726,201.203c0-0.552,0.449-1,1-1h30.549c0.551,0,1,0.448,1,1s-0.449,1-1,1h-30.549
							C112.174,202.203,111.726,201.754,111.726,201.203z"/>
					</g>
				</g>
			</g>
			<g>
				<g>
					<g>
						<path class="st7" d="M200.106,189.86c1.381,0,2.5-1.119,2.5-2.5s-1.119-2.5-2.5-2.5h-30.549c-1.381,0-2.5,1.119-2.5,2.5
							s1.119,2.5,2.5,2.5H200.106z M168.558,187.36c0-0.552,0.449-1,1-1h30.549c0.551,0,1,0.448,1,1s-0.449,1-1,1h-30.549
							C169.006,188.36,168.558,187.911,168.558,187.36z"/>
					</g>
				</g>
			</g>
			<g>
				<g>
					<g>
						<path class="st7" d="M200.106,203.703c1.381,0,2.5-1.119,2.5-2.5s-1.119-2.5-2.5-2.5h-30.549c-1.381,0-2.5,1.119-2.5,2.5
							s1.119,2.5,2.5,2.5H200.106z M168.558,201.203c0-0.552,0.449-1,1-1h30.549c0.551,0,1,0.448,1,1s-0.449,1-1,1h-30.549
							C169.006,202.203,168.558,201.754,168.558,201.203z"/>
					</g>
				</g>
			</g>
		</g>
		<g>
			<g>
				<g>
					<path class="st6" d="M194.046,100.509c1.381,0,2.5-1.119,2.5-2.5s-1.119-2.5-2.5-2.5h-40.581c-1.381,0-2.5,1.119-2.5,2.5
						s1.119,2.5,2.5,2.5H194.046z"/>
				</g>
			</g>
		</g>
		<g>
			<g>
				<g>
					<g>
						<path class="st7" d="M194.046,100.509c1.381,0,2.5-1.119,2.5-2.5s-1.119-2.5-2.5-2.5h-40.581c-1.381,0-2.5,1.119-2.5,2.5
							s1.119,2.5,2.5,2.5H194.046z M152.465,98.009c0-0.552,0.449-1,1-1h40.581c0.551,0,1,0.448,1,1s-0.449,1-1,1h-40.581
							C152.913,99.009,152.465,98.56,152.465,98.009z"/>
					</g>
				</g>
			</g>
		</g>
		<g>
			<g>
				<g>
					<path class="st6" d="M109.956,114.906c1.381,0,2.5-1.119,2.5-2.5s-1.119-2.5-2.5-2.5H58.562c-1.381,0-2.5,1.119-2.5,2.5
						s1.119,2.5,2.5,2.5H109.956z"/>
				</g>
			</g>
		</g>
		<g>
			<g>
				<g>
					<g>
						<path class="st7" d="M109.956,114.906c1.381,0,2.5-1.119,2.5-2.5s-1.119-2.5-2.5-2.5H58.562c-1.381,0-2.5,1.119-2.5,2.5
							s1.119,2.5,2.5,2.5H109.956z M57.562,112.406c0-0.552,0.449-1,1-1h51.394c0.551,0,1,0.448,1,1s-0.449,1-1,1H58.562
							C58.011,113.406,57.562,112.957,57.562,112.406z"/>
					</g>
				</g>
			</g>
		</g>
		<g>
			<g>
				<g>
					<path class="st6" d="M117.18,71.011c1.381,0,2.5-1.119,2.5-2.5s-1.119-2.5-2.5-2.5H64.669c-1.381,0-2.5,1.119-2.5,2.5
						s1.119,2.5,2.5,2.5H117.18z"/>
				</g>
			</g>
		</g>
		<g>
			<g>
				<g>
					<g>
						<path class="st7" d="M117.18,71.011c1.381,0,2.5-1.119,2.5-2.5s-1.119-2.5-2.5-2.5H64.669c-1.381,0-2.5,1.119-2.5,2.5
							s1.119,2.5,2.5,2.5H117.18z M63.669,68.511c0-0.552,0.449-1,1-1h52.511c0.551,0,1,0.448,1,1s-0.449,1-1,1H64.669
							C64.118,69.511,63.669,69.062,63.669,68.511z"/>
					</g>
				</g>
			</g>
		</g>
		<g>
			<g>
				<g>
					<path class="st4" d="M209.929,98.009c0-5.068-4.123-9.191-9.191-9.191s-9.191,4.123-9.191,9.191
						c0,5.068,4.123,9.191,9.191,9.191S209.929,103.077,209.929,98.009z M196.546,98.009c0-2.311,1.88-4.191,4.191-4.191
						s4.191,1.88,4.191,4.191s-1.88,4.191-4.191,4.191S196.546,100.32,196.546,98.009z"/>
				</g>
			</g>
		</g>
		<g>
			<g>
				<g>
					<path class="st4" d="M62.456,77.702c1.381,0,2.5-1.119,2.5-2.5V61.819c0-1.381-1.119-2.5-2.5-2.5H49.073
						c-1.381,0-2.5,1.119-2.5,2.5v13.383c0,1.381,1.119,2.5,2.5,2.5H62.456z M51.573,64.319h8.383v8.383h-8.383V64.319z"/>
				</g>
			</g>
		</g>
		<g>
			<g>
				<g>
					<path class="st4" d="M48.571,121.688h13.383c0.866,0,1.671-0.449,2.127-1.186c0.455-0.737,0.497-1.658,0.109-2.433
						l-6.691-13.382c-0.424-0.847-1.289-1.382-2.236-1.382s-1.813,0.535-2.236,1.382l-6.691,13.382
						c-0.388,0.775-0.346,1.695,0.109,2.433C46.9,121.24,47.705,121.688,48.571,121.688z M55.263,111.396l2.646,5.292h-5.293
						L55.263,111.396z"/>
				</g>
			</g>
		</g>
		<g>
			<g>
				<g>
					<g>
						<path class="st5" d="M206.429,98.009c0-3.138-2.553-5.691-5.691-5.691s-5.691,2.553-5.691,5.691
							c0,3.138,2.553,5.691,5.691,5.691S206.429,101.147,206.429,98.009z M196.546,98.009c0-2.311,1.88-4.191,4.191-4.191
							s4.191,1.88,4.191,4.191s-1.88,4.191-4.191,4.191S196.546,100.32,196.546,98.009z"/>
						<path class="st5" d="M209.929,98.009c0-5.068-4.123-9.191-9.191-9.191s-9.191,4.123-9.191,9.191
							c0,5.068,4.123,9.191,9.191,9.191S209.929,103.077,209.929,98.009z M193.046,98.009c0-4.241,3.45-7.691,7.691-7.691
							s7.691,3.45,7.691,7.691c0,4.241-3.45,7.691-7.691,7.691S193.046,102.25,193.046,98.009z"/>
					</g>
				</g>
			</g>
			<g>
				<g>
					<g>
						<path class="st5" d="M51.573,74.202h8.383c0.828,0,1.5-0.672,1.5-1.5v-8.383c0-0.828-0.672-1.5-1.5-1.5h-8.383
							c-0.828,0-1.5,0.672-1.5,1.5v8.383C50.073,73.531,50.745,74.202,51.573,74.202z M51.573,64.319h8.383v8.383h-8.383V64.319z"/>
						<path class="st5" d="M62.456,77.702c1.381,0,2.5-1.119,2.5-2.5V61.819c0-1.381-1.119-2.5-2.5-2.5H49.073
							c-1.381,0-2.5,1.119-2.5,2.5v13.383c0,1.381,1.119,2.5,2.5,2.5H62.456z M48.073,75.202V61.819c0-0.552,0.449-1,1-1h13.383
							c0.551,0,1,0.448,1,1v13.383c0,0.552-0.449,1-1,1H49.073C48.522,76.202,48.073,75.754,48.073,75.202z"/>
					</g>
				</g>
			</g>
			<g>
				<g>
					<g>
						<path class="st5" d="M52.616,118.188h5.293c0.52,0,1.003-0.269,1.276-0.711s0.298-0.994,0.066-1.459l-2.646-5.292
							c-0.254-0.508-0.773-0.829-1.342-0.829s-1.088,0.321-1.342,0.829l-2.646,5.292c-0.232,0.465-0.208,1.017,0.066,1.459
							S52.096,118.188,52.616,118.188z M55.263,111.396l2.646,5.292h-5.293L55.263,111.396z"/>
						<path class="st5" d="M48.571,121.688h13.383c0.866,0,1.671-0.449,2.127-1.186c0.455-0.737,0.497-1.658,0.109-2.433
							l-6.691-13.382c-0.424-0.847-1.289-1.382-2.236-1.382s-1.813,0.535-2.236,1.382l-6.691,13.382
							c-0.388,0.775-0.346,1.695,0.109,2.433C46.9,121.24,47.705,121.688,48.571,121.688z M47.677,118.741l6.691-13.382
							c0.171-0.341,0.514-0.553,0.895-0.553s0.724,0.212,0.895,0.553l6.692,13.383c0.156,0.312,0.139,0.676-0.043,0.972
							c-0.184,0.298-0.502,0.475-0.852,0.475H48.571c-0.349,0-0.667-0.177-0.851-0.473C47.537,119.417,47.52,119.053,47.677,118.741
							z"/>
					</g>
				</g>
			</g>
		</g>
	</g>
</g>
</svg>
