<?xml version="1.0" encoding="utf-8"?>
<!-- Generator: Adobe Illustrator 24.0.0, SVG Export Plug-In . SVG Version: 6.00 Build 0)  -->
<svg version="1.1" id="Layer_1" xmlns="http://www.w3.org/2000/svg" xmlns:xlink="http://www.w3.org/1999/xlink" x="0px" y="0px"
	 viewBox="0 0 256 256" style="enable-background:new 0 0 256 256;" xml:space="preserve">
<style type="text/css">
	.st0{fill:#382B73;}
	.st1{fill:#291B4A;}
	.st2{fill:#ED9ABC;}
	.st3{fill:#E54890;}
	.st4{fill:#D3D3D3;}
	.st5{fill:#EBE7F2;}
	.st6{fill:#F9B087;}
	.st7{fill:#FF8639;}
	.st8{fill:#65C1D6;}
	.st9{fill:#149CB2;}
</style>
<g>
	<g>
		<g>
			<g>
				<g>
					
						<ellipse transform="matrix(0.7071 -0.7071 0.7071 0.7071 -53.0193 128)" class="st0" cx="128" cy="128" rx="119.4" ry="119.4"/>
				</g>
			</g>
		</g>
	</g>
	<g>
		<g>
			<g>
				<g>
					<path class="st1" d="M120.953,201.116c1.381,0,2.5-1.119,2.5-2.5V65.384c0-1.381-1.119-2.5-2.5-2.5H53.35
						c-1.381,0-2.5,1.119-2.5,2.5v133.232c0,1.381,1.119,2.5,2.5,2.5H120.953z M55.85,67.884h62.603v128.232H55.85V67.884z"/>
				</g>
			</g>
		</g>
		<g>
			<g>
				<g>
					<path class="st1" d="M105.803,85.956c1.381,0,2.5-1.119,2.5-2.5s-1.119-2.5-2.5-2.5H68.5c-1.381,0-2.5,1.119-2.5,2.5
						s1.119,2.5,2.5,2.5H105.803z"/>
				</g>
			</g>
		</g>
		<g>
			<g>
				<g>
					<path class="st1" d="M105.803,101.11c1.381,0,2.5-1.119,2.5-2.5s-1.119-2.5-2.5-2.5H68.5c-1.381,0-2.5,1.119-2.5,2.5
						s1.119,2.5,2.5,2.5H105.803z"/>
				</g>
			</g>
		</g>
		<g>
			<g>
				<g>
					<path class="st1" d="M105.803,116.264c1.381,0,2.5-1.119,2.5-2.5s-1.119-2.5-2.5-2.5H68.5c-1.381,0-2.5,1.119-2.5,2.5
						s1.119,2.5,2.5,2.5H105.803z"/>
				</g>
			</g>
		</g>
		<g>
			<g>
				<g>
					<path class="st1" d="M99.047,170.984c0-6.559-5.336-11.895-11.896-11.895s-11.895,5.336-11.895,11.895
						s5.336,11.895,11.895,11.895S99.047,177.543,99.047,170.984z M80.256,170.984c0-3.802,3.093-6.895,6.895-6.895
						c3.802,0,6.896,3.093,6.896,6.895s-3.093,6.895-6.896,6.895C83.35,177.879,80.256,174.786,80.256,170.984z"/>
				</g>
			</g>
		</g>
		<g>
			<g>
				<g>
					<path class="st1" d="M96.547,152.815c1.381,0,2.5-1.119,2.5-2.5s-1.119-2.5-2.5-2.5H77.756c-1.381,0-2.5,1.119-2.5,2.5
						s1.119,2.5,2.5,2.5H96.547z"/>
				</g>
			</g>
		</g>
		<g>
			<g>
				<g>
					<path class="st1" d="M181.281,95.399c0.488,0.488,1.128,0.732,1.768,0.732s1.279-0.244,1.768-0.732l9.243-9.244
						c0.977-0.976,0.977-2.559,0-3.535l-9.243-9.244c-0.977-0.977-2.559-0.977-3.535,0c-0.977,0.976-0.977,2.559,0,3.535
						l7.476,7.476l-7.476,7.476C180.305,92.84,180.305,94.423,181.281,95.399z"/>
				</g>
			</g>
		</g>
		<g>
			<g>
				<g>
					<path class="st1" d="M158.759,73.376c-0.977-0.977-2.559-0.977-3.535,0l-9.243,9.244c-0.977,0.976-0.977,2.559,0,3.535
						l9.243,9.244c0.488,0.488,1.128,0.732,1.768,0.732s1.279-0.244,1.768-0.732c0.977-0.976,0.977-2.559,0-3.535l-7.476-7.476
						l7.476-7.476C159.735,75.936,159.735,74.353,158.759,73.376z"/>
				</g>
			</g>
		</g>
		<g>
			<g>
				<g>
					<path class="st1" d="M165.133,96.132c0.882,0,1.736-0.467,2.191-1.294l10.184-18.487c0.666-1.209,0.227-2.729-0.983-3.396
						c-1.21-0.666-2.73-0.227-3.396,0.984l-10.184,18.487c-0.666,1.209-0.227,2.729,0.983,3.396
						C164.312,96.032,164.725,96.132,165.133,96.132z"/>
				</g>
			</g>
		</g>
		<g>
			<g>
				<g>
					<path class="st1" d="M202.65,105.892c1.381,0,2.5-1.119,2.5-2.5V65.384c0-1.381-1.119-2.5-2.5-2.5H137.39
						c-1.381,0-2.5,1.119-2.5,2.5v38.008c0,1.381,1.119,2.5,2.5,2.5H202.65z M139.89,67.884h60.261v33.008H139.89V67.884z"/>
				</g>
			</g>
		</g>
		<g>
			<g>
				<g>
					<path class="st1" d="M181.281,143.011c0.488,0.488,1.128,0.732,1.768,0.732s1.279-0.244,1.768-0.732l9.243-9.244
						c0.977-0.976,0.977-2.559,0-3.535l-9.243-9.244c-0.977-0.977-2.559-0.977-3.535,0c-0.977,0.976-0.977,2.559,0,3.535
						l7.476,7.476l-7.476,7.476C180.305,140.452,180.305,142.035,181.281,143.011z"/>
				</g>
			</g>
		</g>
		<g>
			<g>
				<g>
					<path class="st1" d="M158.759,120.989c-0.977-0.977-2.559-0.977-3.535,0l-9.243,9.244c-0.977,0.976-0.977,2.559,0,3.535
						l9.243,9.244c0.488,0.488,1.128,0.732,1.768,0.732s1.279-0.244,1.768-0.732c0.977-0.976,0.977-2.559,0-3.535L151.283,132
						l7.476-7.476C159.735,123.548,159.735,121.965,158.759,120.989z"/>
				</g>
			</g>
		</g>
		<g>
			<g>
				<g>
					<path class="st1" d="M165.133,143.744c0.882,0,1.736-0.467,2.191-1.294l10.184-18.487c0.666-1.209,0.227-2.729-0.983-3.396
						c-1.21-0.665-2.73-0.226-3.396,0.984l-10.184,18.487c-0.666,1.209-0.227,2.729,0.983,3.396
						C164.312,143.644,164.725,143.744,165.133,143.744z"/>
				</g>
			</g>
		</g>
		<g>
			<g>
				<g>
					<path class="st1" d="M202.65,153.504c1.381,0,2.5-1.119,2.5-2.5v-38.008c0-1.381-1.119-2.5-2.5-2.5H137.39
						c-1.381,0-2.5,1.119-2.5,2.5v38.008c0,1.381,1.119,2.5,2.5,2.5H202.65z M139.89,115.496h60.261v33.008H139.89V115.496z"/>
				</g>
			</g>
		</g>
		<g>
			<g>
				<g>
					<path class="st1" d="M181.281,190.624c0.488,0.488,1.128,0.732,1.768,0.732s1.279-0.244,1.768-0.732l9.243-9.244
						c0.977-0.976,0.977-2.559,0-3.535l-9.243-9.244c-0.977-0.977-2.559-0.977-3.535,0c-0.977,0.976-0.977,2.559,0,3.535
						l7.476,7.476l-7.476,7.476C180.305,188.064,180.305,189.647,181.281,190.624z"/>
				</g>
			</g>
		</g>
		<g>
			<g>
				<g>
					<path class="st1" d="M158.759,168.601c-0.977-0.977-2.559-0.977-3.535,0l-9.243,9.244c-0.977,0.976-0.977,2.559,0,3.535
						l9.243,9.244c0.488,0.488,1.128,0.732,1.768,0.732s1.279-0.244,1.768-0.732c0.977-0.977,0.977-2.56,0-3.536l-7.476-7.477
						l7.476-7.476C159.735,171.16,159.735,169.577,158.759,168.601z"/>
				</g>
			</g>
		</g>
		<g>
			<g>
				<g>
					<path class="st1" d="M165.133,191.356c0.882,0,1.736-0.467,2.191-1.294l10.184-18.487c0.666-1.209,0.227-2.729-0.983-3.396
						s-2.73-0.227-3.396,0.984l-10.184,18.487c-0.666,1.209-0.227,2.729,0.983,3.396
						C164.312,191.256,164.725,191.356,165.133,191.356z"/>
				</g>
			</g>
		</g>
		<g>
			<g>
				<g>
					<path class="st1" d="M202.65,201.116c1.381,0,2.5-1.119,2.5-2.5v-38.008c0-1.381-1.119-2.5-2.5-2.5H137.39
						c-1.381,0-2.5,1.119-2.5,2.5v38.008c0,1.381,1.119,2.5,2.5,2.5H202.65z M139.89,163.108h60.261v33.008H139.89V163.108z"/>
				</g>
			</g>
		</g>
		<g>
			<g>
				<g>
					<path class="st1" d="M169.435,57.148c1.381,0,2.5-1.119,2.5-2.5V40.979c0-1.381-1.119-2.5-2.5-2.5H86.566
						c-1.381,0-2.5,1.119-2.5,2.5v13.669c0,1.381,1.119,2.5,2.5,2.5s2.5-1.119,2.5-2.5V43.479h77.869v11.169
						C166.935,56.029,168.054,57.148,169.435,57.148z"/>
				</g>
			</g>
		</g>
		<g>
			<g>
				<g>
					<path class="st1" d="M86.566,206.852c-1.381,0-2.5,1.119-2.5,2.5v13.669c0,1.381,1.119,2.5,2.5,2.5h82.869
						c1.381,0,2.5-1.119,2.5-2.5v-13.669c0-1.381-1.119-2.5-2.5-2.5s-2.5,1.119-2.5,2.5v11.169H89.066v-11.169
						C89.066,207.971,87.947,206.852,86.566,206.852z"/>
				</g>
			</g>
		</g>
	</g>
	<g>
		<g>
			<g>
				<g>
					<path class="st6" d="M120.953,197.116c1.381,0,2.5-1.119,2.5-2.5V61.384c0-1.381-1.119-2.5-2.5-2.5H53.35
						c-1.381,0-2.5,1.119-2.5,2.5v133.232c0,1.381,1.119,2.5,2.5,2.5H120.953z M55.85,63.884h62.603v128.232H55.85V63.884z"/>
				</g>
			</g>
		</g>
		<g>
			<g>
				<g>
					<path class="st6" d="M105.803,81.956c1.381,0,2.5-1.119,2.5-2.5s-1.119-2.5-2.5-2.5H68.5c-1.381,0-2.5,1.119-2.5,2.5
						s1.119,2.5,2.5,2.5H105.803z"/>
				</g>
			</g>
		</g>
		<g>
			<g>
				<g>
					<path class="st6" d="M105.803,97.11c1.381,0,2.5-1.119,2.5-2.5s-1.119-2.5-2.5-2.5H68.5c-1.381,0-2.5,1.119-2.5,2.5
						s1.119,2.5,2.5,2.5H105.803z"/>
				</g>
			</g>
		</g>
		<g>
			<g>
				<g>
					<path class="st6" d="M105.803,112.264c1.381,0,2.5-1.119,2.5-2.5s-1.119-2.5-2.5-2.5H68.5c-1.381,0-2.5,1.119-2.5,2.5
						s1.119,2.5,2.5,2.5H105.803z"/>
				</g>
			</g>
		</g>
		<g>
			<g>
				<g>
					<path class="st4" d="M99.047,166.984c0-6.559-5.336-11.895-11.896-11.895s-11.895,5.336-11.895,11.895
						s5.336,11.895,11.895,11.895S99.047,173.543,99.047,166.984z M80.256,166.984c0-3.802,3.093-6.895,6.895-6.895
						c3.802,0,6.896,3.093,6.896,6.895s-3.093,6.895-6.896,6.895C83.35,173.879,80.256,170.786,80.256,166.984z"/>
				</g>
			</g>
		</g>
		<g>
			<g>
				<g>
					<path class="st6" d="M96.547,148.815c1.381,0,2.5-1.119,2.5-2.5s-1.119-2.5-2.5-2.5H77.756c-1.381,0-2.5,1.119-2.5,2.5
						s1.119,2.5,2.5,2.5H96.547z"/>
				</g>
			</g>
		</g>
		<g>
			<g>
				<g>
					<g>
						<path class="st7" d="M120.953,197.116c1.381,0,2.5-1.119,2.5-2.5V61.384c0-1.381-1.119-2.5-2.5-2.5H53.35
							c-1.381,0-2.5,1.119-2.5,2.5v133.232c0,1.381,1.119,2.5,2.5,2.5H120.953z M52.35,194.616V61.384c0-0.551,0.449-1,1-1h67.603
							c0.551,0,1,0.449,1,1v133.232c0,0.551-0.449,1-1,1H53.35C52.799,195.616,52.35,195.168,52.35,194.616z"/>
						<path class="st7" d="M55.85,193.616h62.603c0.828,0,1.5-0.672,1.5-1.5V63.884c0-0.828-0.672-1.5-1.5-1.5H55.85
							c-0.828,0-1.5,0.672-1.5,1.5v128.232C54.35,192.945,55.022,193.616,55.85,193.616z M55.85,63.884h62.603v128.232H55.85V63.884
							z"/>
					</g>
				</g>
			</g>
			<g>
				<g>
					<g>
						<path class="st7" d="M105.803,81.956c1.381,0,2.5-1.119,2.5-2.5s-1.119-2.5-2.5-2.5H68.5c-1.381,0-2.5,1.119-2.5,2.5
							s1.119,2.5,2.5,2.5H105.803z M67.5,79.456c0-0.551,0.449-1,1-1h37.303c0.551,0,1,0.449,1,1s-0.449,1-1,1H68.5
							C67.949,80.456,67.5,80.007,67.5,79.456z"/>
					</g>
				</g>
			</g>
			<g>
				<g>
					<g>
						<path class="st7" d="M105.803,97.11c1.381,0,2.5-1.119,2.5-2.5s-1.119-2.5-2.5-2.5H68.5c-1.381,0-2.5,1.119-2.5,2.5
							s1.119,2.5,2.5,2.5H105.803z M67.5,94.61c0-0.551,0.449-1,1-1h37.303c0.551,0,1,0.449,1,1s-0.449,1-1,1H68.5
							C67.949,95.61,67.5,95.161,67.5,94.61z"/>
					</g>
				</g>
			</g>
			<g>
				<g>
					<g>
						<path class="st7" d="M105.803,112.264c1.381,0,2.5-1.119,2.5-2.5s-1.119-2.5-2.5-2.5H68.5c-1.381,0-2.5,1.119-2.5,2.5
							s1.119,2.5,2.5,2.5H105.803z M67.5,109.764c0-0.551,0.449-1,1-1h37.303c0.551,0,1,0.449,1,1s-0.449,1-1,1H68.5
							C67.949,110.764,67.5,110.316,67.5,109.764z"/>
					</g>
				</g>
			</g>
			<g>
				<g>
					<g>
						<path class="st7" d="M96.547,148.815c1.381,0,2.5-1.119,2.5-2.5s-1.119-2.5-2.5-2.5H77.756c-1.381,0-2.5,1.119-2.5,2.5
							s1.119,2.5,2.5,2.5H96.547z M76.756,146.315c0-0.551,0.449-1,1-1h18.791c0.551,0,1,0.449,1,1s-0.449,1-1,1H77.756
							C77.205,147.315,76.756,146.867,76.756,146.315z"/>
					</g>
				</g>
			</g>
		</g>
		<g>
			<g>
				<g>
					<g>
						<g>
							<path class="st8" d="M181.281,91.399c0.488,0.488,1.128,0.732,1.768,0.732s1.279-0.244,1.768-0.732l9.243-9.244
								c0.977-0.976,0.977-2.559,0-3.535l-9.243-9.244c-0.977-0.977-2.559-0.977-3.535,0c-0.977,0.976-0.977,2.559,0,3.535
								l7.476,7.476l-7.476,7.476C180.305,88.84,180.305,90.423,181.281,91.399z"/>
						</g>
					</g>
				</g>
				<g>
					<g>
						<g>
							<path class="st8" d="M158.759,69.376c-0.977-0.977-2.559-0.977-3.535,0l-9.243,9.244c-0.977,0.976-0.977,2.559,0,3.535
								l9.243,9.244c0.488,0.488,1.128,0.732,1.768,0.732s1.279-0.244,1.768-0.732c0.977-0.976,0.977-2.559,0-3.535l-7.476-7.476
								l7.476-7.476C159.735,71.936,159.735,70.353,158.759,69.376z"/>
						</g>
					</g>
				</g>
				<g>
					<g>
						<g>
							<path class="st8" d="M165.133,92.132c0.882,0,1.736-0.467,2.191-1.294l10.184-18.487c0.666-1.209,0.227-2.729-0.983-3.396
								c-1.21-0.665-2.73-0.227-3.396,0.984l-10.184,18.487c-0.666,1.209-0.227,2.729,0.983,3.396
								C164.312,92.032,164.725,92.132,165.133,92.132z"/>
						</g>
					</g>
				</g>
			</g>
			<g>
				<g>
					<g>
						<path class="st8" d="M202.65,101.892c1.381,0,2.5-1.119,2.5-2.5V61.384c0-1.381-1.119-2.5-2.5-2.5H137.39
							c-1.381,0-2.5,1.119-2.5,2.5v38.008c0,1.381,1.119,2.5,2.5,2.5H202.65z M139.89,63.884h60.261v33.008H139.89V63.884z"/>
					</g>
				</g>
			</g>
		</g>
		<g>
			<g>
				<g>
					<g>
						<g>
							<path class="st8" d="M181.281,139.011c0.488,0.488,1.128,0.732,1.768,0.732s1.279-0.244,1.768-0.732l9.243-9.244
								c0.977-0.976,0.977-2.559,0-3.535l-9.243-9.244c-0.977-0.977-2.559-0.977-3.535,0c-0.977,0.976-0.977,2.559,0,3.535
								l7.476,7.476l-7.476,7.476C180.305,136.452,180.305,138.035,181.281,139.011z"/>
						</g>
					</g>
				</g>
				<g>
					<g>
						<g>
							<path class="st8" d="M158.759,116.989c-0.977-0.977-2.559-0.977-3.535,0l-9.243,9.244c-0.977,0.976-0.977,2.559,0,3.535
								l9.243,9.244c0.488,0.488,1.128,0.732,1.768,0.732s1.279-0.244,1.768-0.732c0.977-0.976,0.977-2.559,0-3.535L151.283,128
								l7.476-7.476C159.735,119.548,159.735,117.965,158.759,116.989z"/>
						</g>
					</g>
				</g>
				<g>
					<g>
						<g>
							<path class="st8" d="M165.133,139.744c0.882,0,1.736-0.467,2.191-1.294l10.184-18.487c0.666-1.209,0.227-2.729-0.983-3.396
								s-2.73-0.226-3.396,0.984l-10.184,18.487c-0.666,1.209-0.227,2.729,0.983,3.396
								C164.312,139.644,164.725,139.744,165.133,139.744z"/>
						</g>
					</g>
				</g>
			</g>
			<g>
				<g>
					<g>
						<path class="st8" d="M202.65,149.504c1.381,0,2.5-1.119,2.5-2.5v-38.008c0-1.381-1.119-2.5-2.5-2.5H137.39
							c-1.381,0-2.5,1.119-2.5,2.5v38.008c0,1.381,1.119,2.5,2.5,2.5H202.65z M139.89,111.496h60.261v33.008H139.89V111.496z"/>
					</g>
				</g>
			</g>
		</g>
		<g>
			<g>
				<g>
					<g>
						<g>
							<path class="st8" d="M181.281,186.624c0.488,0.488,1.128,0.732,1.768,0.732s1.279-0.244,1.768-0.732l9.243-9.244
								c0.977-0.976,0.977-2.559,0-3.535l-9.243-9.244c-0.977-0.977-2.559-0.977-3.535,0c-0.977,0.976-0.977,2.559,0,3.535
								l7.476,7.476l-7.476,7.476C180.305,184.064,180.305,185.647,181.281,186.624z"/>
						</g>
					</g>
				</g>
				<g>
					<g>
						<g>
							<path class="st8" d="M158.759,164.601c-0.977-0.977-2.559-0.977-3.535,0l-9.243,9.244c-0.977,0.976-0.977,2.559,0,3.535
								l9.243,9.244c0.488,0.488,1.128,0.732,1.768,0.732s1.279-0.244,1.768-0.732c0.977-0.976,0.977-2.559,0-3.535l-7.476-7.476
								l7.476-7.476C159.735,167.16,159.735,165.577,158.759,164.601z"/>
						</g>
					</g>
				</g>
				<g>
					<g>
						<g>
							<path class="st8" d="M165.133,187.356c0.882,0,1.736-0.467,2.191-1.294l10.184-18.487c0.666-1.209,0.227-2.729-0.983-3.396
								c-1.21-0.666-2.73-0.227-3.396,0.984l-10.184,18.487c-0.666,1.209-0.227,2.729,0.983,3.396
								C164.312,187.256,164.725,187.356,165.133,187.356z"/>
						</g>
					</g>
				</g>
			</g>
			<g>
				<g>
					<g>
						<path class="st8" d="M202.65,197.116c1.381,0,2.5-1.119,2.5-2.5v-38.008c0-1.381-1.119-2.5-2.5-2.5H137.39
							c-1.381,0-2.5,1.119-2.5,2.5v38.008c0,1.381,1.119,2.5,2.5,2.5H202.65z M139.89,159.108h60.261v33.008H139.89V159.108z"/>
					</g>
				</g>
			</g>
		</g>
		<g>
			<g>
				<g>
					<g>
						<path class="st9" d="M181.281,91.399c0.488,0.488,1.128,0.732,1.768,0.732s1.279-0.244,1.768-0.732l9.243-9.244
							c0.977-0.976,0.977-2.559,0-3.535l-9.243-9.244c-0.488-0.488-1.128-0.732-1.768-0.732s-1.279,0.244-1.768,0.732
							c-0.977,0.976-0.977,2.559,0,3.535l7.476,7.476l-7.476,7.476C180.305,88.84,180.305,90.423,181.281,91.399z M182.342,88.924
							l7.476-7.476c0.586-0.586,0.586-1.536,0-2.121l-7.476-7.476c-0.189-0.189-0.293-0.44-0.293-0.707s0.104-0.518,0.293-0.707
							c0.189-0.189,0.44-0.293,0.707-0.293s0.518,0.104,0.707,0.293l9.243,9.244c0.189,0.189,0.293,0.44,0.293,0.707
							s-0.104,0.518-0.293,0.707l-9.243,9.244c-0.189,0.189-0.44,0.293-0.707,0.293s-0.518-0.104-0.707-0.293
							c-0.189-0.189-0.293-0.44-0.293-0.707S182.153,89.113,182.342,88.924z"/>
					</g>
				</g>
			</g>
			<g>
				<g>
					<g>
						<path class="st9" d="M158.759,69.376c-0.488-0.488-1.128-0.732-1.768-0.732s-1.279,0.244-1.768,0.732l-9.243,9.244
							c-0.977,0.976-0.977,2.559,0,3.535l9.243,9.244c0.488,0.488,1.128,0.732,1.768,0.732s1.279-0.244,1.768-0.732
							c0.977-0.976,0.977-2.559,0-3.535l-7.476-7.476l7.476-7.476C159.735,71.936,159.735,70.353,158.759,69.376z M157.698,71.851
							l-7.476,7.476c-0.586,0.586-0.586,1.536,0,2.121l7.476,7.476c0.189,0.189,0.293,0.44,0.293,0.707s-0.104,0.518-0.293,0.707
							c-0.189,0.189-0.44,0.293-0.707,0.293s-0.518-0.104-0.707-0.293l-9.243-9.244c-0.189-0.189-0.293-0.44-0.293-0.707
							s0.104-0.518,0.293-0.707l9.243-9.244c0.189-0.189,0.44-0.293,0.707-0.293s0.518,0.104,0.707,0.293
							c0.189,0.189,0.293,0.44,0.293,0.707S157.887,71.662,157.698,71.851z"/>
					</g>
				</g>
			</g>
			<g>
				<g>
					<g>
						<path class="st9" d="M165.133,92.132c0.882,0,1.736-0.467,2.191-1.294l10.184-18.487c0.666-1.209,0.227-2.729-0.983-3.396
							c-0.383-0.21-0.797-0.31-1.205-0.31c-0.882,0-1.736,0.467-2.191,1.294l-10.184,18.487c-0.666,1.209-0.227,2.729,0.983,3.396
							C164.312,92.032,164.725,92.132,165.133,92.132z M164.259,89.149l10.184-18.489c0.175-0.319,0.511-0.516,0.876-0.516
							c0.169,0,0.331,0.042,0.481,0.124c0.234,0.129,0.404,0.341,0.478,0.598c0.074,0.256,0.044,0.527-0.085,0.761L166.01,90.114
							c-0.176,0.319-0.512,0.517-0.877,0.517c-0.169,0-0.331-0.042-0.48-0.124c-0.234-0.129-0.404-0.341-0.478-0.598
							C164.1,89.653,164.13,89.383,164.259,89.149z"/>
					</g>
				</g>
			</g>
			<g>
				<g>
					<g>
						<path class="st9" d="M202.65,101.892c1.381,0,2.5-1.119,2.5-2.5V61.384c0-1.381-1.119-2.5-2.5-2.5H137.39
							c-1.381,0-2.5,1.119-2.5,2.5v38.008c0,1.381,1.119,2.5,2.5,2.5H202.65z M136.39,99.392V61.384c0-0.551,0.449-1,1-1h65.261
							c0.551,0,1,0.449,1,1v38.008c0,0.551-0.449,1-1,1H137.39C136.838,100.392,136.39,99.943,136.39,99.392z"/>
						<path class="st9" d="M139.89,98.392h60.261c0.828,0,1.5-0.672,1.5-1.5V63.884c0-0.828-0.672-1.5-1.5-1.5H139.89
							c-0.828,0-1.5,0.672-1.5,1.5v33.008C138.39,97.72,139.061,98.392,139.89,98.392z M139.89,63.884h60.261v33.008H139.89V63.884z
							"/>
					</g>
				</g>
			</g>
			<g>
				<g>
					<g>
						<path class="st9" d="M181.281,139.011c0.488,0.488,1.128,0.732,1.768,0.732s1.279-0.244,1.768-0.732l9.243-9.244
							c0.977-0.976,0.977-2.559,0-3.535l-9.243-9.244c-0.488-0.488-1.128-0.732-1.768-0.732s-1.279,0.244-1.768,0.732
							c-0.977,0.976-0.977,2.559,0,3.535l7.476,7.476l-7.476,7.476C180.305,136.452,180.305,138.035,181.281,139.011z
							 M182.342,136.537l7.476-7.476c0.586-0.586,0.586-1.536,0-2.121l-7.476-7.476c-0.189-0.189-0.293-0.44-0.293-0.707
							s0.104-0.518,0.293-0.707c0.189-0.189,0.44-0.293,0.707-0.293s0.518,0.104,0.707,0.293l9.243,9.244
							c0.189,0.189,0.293,0.44,0.293,0.707s-0.104,0.518-0.293,0.707l-9.243,9.244c-0.189,0.189-0.44,0.293-0.707,0.293
							s-0.518-0.104-0.707-0.293c-0.189-0.189-0.293-0.44-0.293-0.707S182.153,136.726,182.342,136.537z"/>
					</g>
				</g>
			</g>
			<g>
				<g>
					<g>
						<path class="st9" d="M158.759,116.989c-0.488-0.488-1.128-0.732-1.768-0.732s-1.279,0.244-1.768,0.732l-9.243,9.244
							c-0.977,0.976-0.977,2.559,0,3.535l9.243,9.244c0.488,0.488,1.128,0.732,1.768,0.732s1.279-0.244,1.768-0.732
							c0.977-0.976,0.977-2.559,0-3.535L151.283,128l7.476-7.476C159.735,119.548,159.735,117.965,158.759,116.989z
							 M157.698,119.463l-7.476,7.476c-0.586,0.586-0.586,1.536,0,2.121l7.476,7.476c0.189,0.189,0.293,0.44,0.293,0.707
							s-0.104,0.518-0.293,0.707c-0.189,0.189-0.44,0.293-0.707,0.293s-0.518-0.104-0.707-0.293l-9.243-9.244
							c-0.189-0.189-0.293-0.44-0.293-0.707s0.104-0.518,0.293-0.707l9.243-9.244c0.189-0.189,0.44-0.293,0.707-0.293
							s0.518,0.104,0.707,0.293c0.189,0.189,0.293,0.44,0.293,0.707S157.887,119.274,157.698,119.463z"/>
					</g>
				</g>
			</g>
			<g>
				<g>
					<g>
						<path class="st9" d="M165.133,139.744c0.882,0,1.736-0.467,2.191-1.294l10.184-18.487c0.666-1.209,0.227-2.729-0.983-3.396
							c-0.383-0.211-0.797-0.311-1.204-0.311c-0.882,0-1.736,0.468-2.191,1.295l-10.184,18.487
							c-0.666,1.209-0.227,2.729,0.983,3.396C164.312,139.644,164.725,139.744,165.133,139.744z M164.259,136.761l10.184-18.489
							c0.175-0.319,0.511-0.517,0.877-0.517c0.169,0,0.33,0.042,0.481,0.125c0.234,0.129,0.404,0.341,0.478,0.598
							c0.074,0.256,0.044,0.527-0.085,0.761l-10.184,18.488c-0.176,0.319-0.512,0.517-0.877,0.517c-0.169,0-0.331-0.042-0.48-0.124
							c-0.234-0.129-0.404-0.341-0.478-0.598C164.1,137.266,164.13,136.995,164.259,136.761z"/>
					</g>
				</g>
			</g>
			<g>
				<g>
					<g>
						<path class="st9" d="M139.89,146.004h60.261c0.828,0,1.5-0.672,1.5-1.5v-33.008c0-0.828-0.672-1.5-1.5-1.5H139.89
							c-0.828,0-1.5,0.672-1.5,1.5v33.008C138.39,145.332,139.061,146.004,139.89,146.004z M139.89,111.496h60.261v33.008H139.89
							V111.496z"/>
						<path class="st9" d="M202.65,149.504c1.381,0,2.5-1.119,2.5-2.5v-38.008c0-1.381-1.119-2.5-2.5-2.5H137.39
							c-1.381,0-2.5,1.119-2.5,2.5v38.008c0,1.381,1.119,2.5,2.5,2.5H202.65z M136.39,147.004v-38.008c0-0.551,0.449-1,1-1h65.261
							c0.551,0,1,0.449,1,1v38.008c0,0.551-0.449,1-1,1H137.39C136.838,148.004,136.39,147.555,136.39,147.004z"/>
					</g>
				</g>
			</g>
			<g>
				<g>
					<g>
						<path class="st9" d="M181.281,186.624c0.488,0.488,1.128,0.732,1.768,0.732s1.279-0.244,1.768-0.732l9.243-9.244
							c0.977-0.976,0.977-2.559,0-3.535l-9.243-9.244c-0.488-0.488-1.128-0.732-1.768-0.732s-1.279,0.244-1.768,0.732
							c-0.977,0.976-0.977,2.559,0,3.535l7.476,7.476l-7.476,7.476C180.305,184.064,180.305,185.647,181.281,186.624z
							 M182.342,184.149l7.476-7.476c0.586-0.586,0.586-1.536,0-2.121l-7.476-7.476c-0.189-0.189-0.293-0.44-0.293-0.707
							s0.104-0.518,0.293-0.707c0.189-0.189,0.44-0.293,0.707-0.293s0.518,0.104,0.707,0.293l9.243,9.244
							c0.189,0.189,0.293,0.44,0.293,0.707s-0.104,0.518-0.293,0.707l-9.243,9.244c-0.189,0.189-0.44,0.293-0.707,0.293
							s-0.518-0.104-0.707-0.293c-0.189-0.189-0.293-0.44-0.293-0.707S182.153,184.338,182.342,184.149z"/>
					</g>
				</g>
			</g>
			<g>
				<g>
					<g>
						<path class="st9" d="M158.759,164.601c-0.488-0.488-1.128-0.732-1.768-0.732s-1.279,0.244-1.768,0.732l-9.243,9.244
							c-0.977,0.976-0.977,2.559,0,3.535l9.243,9.244c0.488,0.488,1.128,0.732,1.768,0.732s1.279-0.244,1.768-0.732
							c0.977-0.976,0.977-2.559,0-3.535l-7.476-7.476l7.476-7.476C159.735,167.16,159.735,165.577,158.759,164.601z
							 M157.698,167.076l-7.476,7.476c-0.586,0.586-0.586,1.536,0,2.121l7.476,7.476c0.189,0.189,0.293,0.44,0.293,0.707
							s-0.104,0.518-0.293,0.707c-0.189,0.189-0.44,0.293-0.707,0.293s-0.518-0.104-0.707-0.293l-9.243-9.244
							c-0.189-0.189-0.293-0.44-0.293-0.707s0.104-0.518,0.293-0.707l9.243-9.244c0.189-0.189,0.44-0.293,0.707-0.293
							s0.518,0.104,0.707,0.293c0.189,0.189,0.293,0.44,0.293,0.707S157.887,166.887,157.698,167.076z"/>
					</g>
				</g>
			</g>
			<g>
				<g>
					<g>
						<path class="st9" d="M165.133,187.356c0.882,0,1.736-0.467,2.191-1.294l10.184-18.487c0.666-1.209,0.227-2.729-0.983-3.396
							c-0.383-0.211-0.797-0.311-1.205-0.311c-0.882,0-1.736,0.467-2.19,1.295l-10.184,18.487c-0.666,1.209-0.227,2.729,0.983,3.396
							C164.312,187.256,164.725,187.356,165.133,187.356z M164.259,184.374l10.185-18.489c0.175-0.319,0.511-0.517,0.876-0.517
							c0.169,0,0.331,0.042,0.481,0.125c0.234,0.129,0.404,0.341,0.478,0.598c0.074,0.257,0.044,0.527-0.085,0.761l-10.184,18.488
							c-0.176,0.319-0.512,0.517-0.877,0.517c-0.169,0-0.331-0.042-0.48-0.124c-0.234-0.129-0.404-0.341-0.478-0.598
							C164.1,184.878,164.13,184.608,164.259,184.374z"/>
					</g>
				</g>
			</g>
			<g>
				<g>
					<g>
						<path class="st9" d="M139.89,193.616h60.261c0.828,0,1.5-0.672,1.5-1.5v-33.008c0-0.828-0.672-1.5-1.5-1.5H139.89
							c-0.828,0-1.5,0.672-1.5,1.5v33.008C138.39,192.945,139.061,193.616,139.89,193.616z M139.89,159.108h60.261v33.008H139.89
							V159.108z"/>
						<path class="st9" d="M202.65,197.116c1.381,0,2.5-1.119,2.5-2.5v-38.008c0-1.381-1.119-2.5-2.5-2.5H137.39
							c-1.381,0-2.5,1.119-2.5,2.5v38.008c0,1.381,1.119,2.5,2.5,2.5H202.65z M136.39,194.616v-38.008c0-0.551,0.449-1,1-1h65.261
							c0.551,0,1,0.449,1,1v38.008c0,0.551-0.449,1-1,1H137.39C136.838,195.616,136.39,195.168,136.39,194.616z"/>
					</g>
				</g>
			</g>
		</g>
		<g>
			<g>
				<g>
					<g>
						<path class="st4" d="M169.435,53.148c1.381,0,2.5-1.119,2.5-2.5V36.979c0-1.381-1.119-2.5-2.5-2.5H86.566
							c-1.381,0-2.5,1.119-2.5,2.5v13.669c0,1.381,1.119,2.5,2.5,2.5s2.5-1.119,2.5-2.5V39.479h77.869v11.169
							C166.935,52.029,168.054,53.148,169.435,53.148z"/>
					</g>
				</g>
			</g>
			<g>
				<g>
					<g>
						<path class="st4" d="M86.566,202.852c-1.381,0-2.5,1.119-2.5,2.5v13.669c0,1.381,1.119,2.5,2.5,2.5h82.869
							c1.381,0,2.5-1.119,2.5-2.5v-13.669c0-1.381-1.119-2.5-2.5-2.5s-2.5,1.119-2.5,2.5v11.169H89.066v-11.169
							C89.066,203.971,87.947,202.852,86.566,202.852z"/>
					</g>
				</g>
			</g>
		</g>
		<g>
			<g>
				<g>
					<g>
						<path class="st5" d="M99.047,166.984c0-6.559-5.336-11.895-11.896-11.895s-11.895,5.336-11.895,11.895
							s5.336,11.895,11.895,11.895S99.047,173.543,99.047,166.984z M76.756,166.984c0-5.732,4.663-10.395,10.395-10.395
							c5.732,0,10.396,4.663,10.396,10.395s-4.663,10.395-10.396,10.395C81.42,177.379,76.756,172.716,76.756,166.984z"/>
						<path class="st5" d="M95.547,166.984c0-4.629-3.766-8.395-8.396-8.395c-4.629,0-8.395,3.766-8.395,8.395
							s3.766,8.395,8.395,8.395C91.781,175.379,95.547,171.613,95.547,166.984z M80.256,166.984c0-3.802,3.093-6.895,6.895-6.895
							c3.802,0,6.896,3.093,6.896,6.895s-3.093,6.895-6.896,6.895C83.35,173.879,80.256,170.786,80.256,166.984z"/>
					</g>
				</g>
			</g>
			<g>
				<g>
					<g>
						<path class="st5" d="M169.435,53.148c1.381,0,2.5-1.119,2.5-2.5V36.979c0-1.381-1.119-2.5-2.5-2.5H86.566
							c-1.381,0-2.5,1.119-2.5,2.5v13.669c0,1.381,1.119,2.5,2.5,2.5s2.5-1.119,2.5-2.5V39.479h77.869v11.169
							C166.935,52.029,168.054,53.148,169.435,53.148z M89.066,37.979c-0.828,0-1.5,0.672-1.5,1.5v11.169c0,0.551-0.449,1-1,1
							s-1-0.449-1-1V36.979c0-0.551,0.449-1,1-1h82.869c0.551,0,1,0.449,1,1v13.669c0,0.551-0.449,1-1,1s-1-0.449-1-1V39.479
							c0-0.828-0.672-1.5-1.5-1.5H89.066z"/>
					</g>
				</g>
			</g>
			<g>
				<g>
					<g>
						<path class="st5" d="M86.566,202.852c-1.381,0-2.5,1.119-2.5,2.5v13.669c0,1.381,1.119,2.5,2.5,2.5h82.869
							c1.381,0,2.5-1.119,2.5-2.5v-13.669c0-1.381-1.119-2.5-2.5-2.5s-2.5,1.119-2.5,2.5v11.169H89.066v-11.169
							C89.066,203.971,87.947,202.852,86.566,202.852z M166.935,218.021c0.828,0,1.5-0.672,1.5-1.5v-11.169c0-0.551,0.449-1,1-1
							s1,0.449,1,1v13.669c0,0.551-0.449,1-1,1H86.566c-0.551,0-1-0.449-1-1v-13.669c0-0.551,0.449-1,1-1s1,0.449,1,1v11.169
							c0,0.828,0.672,1.5,1.5,1.5H166.935z"/>
					</g>
				</g>
			</g>
		</g>
	</g>
</g>
</svg>
