<?xml version="1.0" encoding="utf-8"?>
<!-- Generator: Adobe Illustrator 24.0.0, SVG Export Plug-In . SVG Version: 6.00 Build 0)  -->
<svg version="1.1" id="Layer_1" xmlns="http://www.w3.org/2000/svg" xmlns:xlink="http://www.w3.org/1999/xlink" x="0px" y="0px"
	 viewBox="0 0 256 256" style="enable-background:new 0 0 256 256;" xml:space="preserve">
<style type="text/css">
	.st0{fill:#382B73;}
	.st1{fill:#291B4A;}
	.st2{fill:#ED9ABC;}
	.st3{fill:#E54890;}
	.st4{fill:#D3D3D3;}
	.st5{fill:#EBE7F2;}
	.st6{fill:#F9B087;}
	.st7{fill:#FF8639;}
	.st8{fill:#65C1D6;}
	.st9{fill:#149CB2;}
</style>
<g>
	<g>
		<g>
			<g>
				<g>
					<circle class="st0" cx="128" cy="128" r="119.4"/>
				</g>
			</g>
		</g>
	</g>
	<g>
		<g>
			<g>
				<g>
					<path class="st1" d="M215.526,91.641c0-7.685-6.251-13.936-13.936-13.936s-13.936,6.251-13.936,13.936
						s6.251,13.936,13.936,13.936S215.526,99.325,215.526,91.641z M192.655,91.641c0-4.927,4.009-8.936,8.936-8.936
						s8.936,4.009,8.936,8.936s-4.009,8.936-8.936,8.936S192.655,96.567,192.655,91.641z"/>
				</g>
			</g>
		</g>
		<g>
			<g>
				<g>
					<path class="st1" d="M68.345,91.641c0-7.685-6.251-13.936-13.936-13.936s-13.936,6.251-13.936,13.936
						s6.251,13.936,13.936,13.936S68.345,99.325,68.345,91.641z M45.474,91.641c0-4.927,4.009-8.936,8.936-8.936
						s8.936,4.009,8.936,8.936s-4.009,8.936-8.936,8.936S45.474,96.567,45.474,91.641z"/>
				</g>
			</g>
		</g>
		<g>
			<g>
				<g>
					<path class="st1" d="M141.936,215.658c0-7.685-6.251-13.936-13.936-13.936s-13.936,6.251-13.936,13.936
						s6.251,13.936,13.936,13.936S141.936,223.343,141.936,215.658z M119.064,215.658c0-4.927,4.009-8.936,8.936-8.936
						s8.936,4.009,8.936,8.936s-4.009,8.936-8.936,8.936S119.064,220.585,119.064,215.658z"/>
				</g>
			</g>
		</g>
		<g>
			<g>
				<g>
					<path class="st1" d="M53.761,158.962c-1.329-0.354-2.703,0.44-3.058,1.774l-4.371,16.456c-0.171,0.641-0.079,1.323,0.254,1.896
						s0.88,0.991,1.521,1.161l16.456,4.37c0.215,0.058,0.431,0.085,0.644,0.085c1.105,0,2.117-0.74,2.414-1.859
						c0.354-1.334-0.439-2.703-1.774-3.058l-10.576-2.809l21.062-12.161l50.418,29.109c0.387,0.224,0.818,0.335,1.25,0.335
						s0.863-0.111,1.25-0.335l50.418-29.109l21.062,12.161l-10.576,2.809c-1.335,0.354-2.129,1.724-1.774,3.058
						c0.297,1.119,1.309,1.859,2.414,1.859c0.213,0,0.429-0.027,0.644-0.085l16.456-4.37c0.641-0.17,1.188-0.588,1.521-1.161
						s0.425-1.256,0.254-1.896l-4.371-16.456c-0.354-1.334-1.727-2.13-3.058-1.774c-1.335,0.354-2.129,1.724-1.774,3.058
						l2.834,10.669l-21.043-12.149v-58.421c0-0.894-0.477-1.719-1.25-2.165l-50.353-29.071v-20.4l7.771,7.771
						c0.488,0.488,1.128,0.732,1.768,0.732s1.279-0.244,1.768-0.732c0.977-0.977,0.977-2.559,0-3.535L129.921,42.68
						c-0.977-0.977-2.559-0.977-3.535,0l-12.04,12.039c-0.977,0.976-0.977,2.559,0,3.535s2.559,0.977,3.535,0l7.772-7.772v20.223
						L74.994,99.953c-0.773,0.446-1.25,1.271-1.25,2.165v58.421l-21.043,12.149l2.834-10.669
						C55.89,160.686,55.096,159.316,53.761,158.962z M177.256,157.653l-23.395-13.507c-1.192-0.689-2.725-0.28-3.415,0.915
						s-0.28,2.725,0.915,3.415l23.307,13.457l-44.169,25.5v-53.989l46.756-26.995V157.653z M125.653,76.479v25.996
						c0,1.381,1.119,2.5,2.5,2.5s2.5-1.119,2.5-2.5V76.656l44.103,25.463L128,129.113l-46.756-26.995L125.653,76.479z
						 M78.744,106.449l46.756,26.995v53.989l-44.169-25.5l23.307-13.457c1.195-0.69,1.605-2.22,0.915-3.415
						c-0.691-1.195-2.222-1.604-3.415-0.915l-23.395,13.507V106.449z"/>
				</g>
			</g>
		</g>
	</g>
	<g>
		<g>
			<g>
				<g>
					<g>
						<g>
							<path class="st8" d="M126.75,189.928c0.387,0.224,0.818,0.335,1.25,0.335s0.863-0.111,1.25-0.335l51.756-29.881
								c0.773-0.446,1.25-1.271,1.25-2.165V98.118c0-0.894-0.477-1.719-1.25-2.165L129.25,66.072c-0.773-0.447-1.727-0.447-2.5,0
								L74.994,95.953c-0.773,0.446-1.25,1.271-1.25,2.165v59.764c0,0.894,0.477,1.719,1.25,2.165L126.75,189.928z M179.766,157.882
								h-0.01H179.766z M78.744,99.562L128,71.124l49.256,28.438v56.877L128,184.876l-49.256-28.438V99.562z"/>
						</g>
					</g>
				</g>
				<g>
					<g>
						<g>
							<path class="st8" d="M126.75,130.165c0.387,0.224,0.818,0.335,1.25,0.335s0.863-0.111,1.25-0.335l49.086-28.34
								c1.195-0.69,1.605-2.22,0.915-3.415c-0.69-1.196-2.222-1.605-3.415-0.915L128,125.113L80.504,97.691
								c-1.194-0.689-2.725-0.281-3.415,0.915c-0.69,1.195-0.28,2.725,0.915,3.415L126.75,130.165z"/>
						</g>
					</g>
				</g>
				<g>
					<g>
						<g>
							<path class="st8" d="M130.5,183.757V128c0-1.381-1.119-2.5-2.5-2.5s-2.5,1.119-2.5,2.5v55.757c0,1.381,1.119,2.5,2.5,2.5
								S130.5,185.138,130.5,183.757z"/>
						</g>
					</g>
				</g>
			</g>
			<g>
				<g>
					<g>
						<path class="st9" d="M126.75,189.928c0.387,0.224,0.818,0.335,1.25,0.335s0.863-0.111,1.25-0.335l51.756-29.881
							c0.773-0.446,1.25-1.271,1.25-2.165V98.118c0-0.894-0.477-1.719-1.25-2.165L129.25,66.072
							c-0.387-0.224-0.818-0.335-1.25-0.335s-0.863,0.112-1.25,0.335L74.994,95.953c-0.773,0.446-1.25,1.271-1.25,2.165v59.764
							c0,0.894,0.477,1.719,1.25,2.165L126.75,189.928z M75.244,98.118c0-0.356,0.191-0.688,0.5-0.866l51.757-29.881
							c0.151-0.088,0.324-0.134,0.499-0.134s0.348,0.046,0.5,0.135l51.756,29.881c0.308,0.178,0.5,0.51,0.5,0.866v59.764
							c0,0.356-0.191,0.688-0.5,0.866l-51.757,29.881c-0.151,0.087-0.323,0.134-0.499,0.134s-0.348-0.046-0.5-0.134l-51.756-29.881
							c-0.308-0.178-0.5-0.51-0.5-0.866V98.118z"/>
						<path class="st9" d="M129,129.443v53.989c0,0.536,0.286,1.031,0.75,1.299c0.232,0.134,0.491,0.201,0.75,0.201
							s0.518-0.067,0.75-0.201l46.756-26.994c0.464-0.268,0.75-0.763,0.75-1.299v-53.99c0-0.536-0.286-1.031-0.75-1.299
							c-0.232-0.134-0.491-0.201-0.75-0.201s-0.518,0.067-0.75,0.201l-46.756,26.995C129.286,128.412,129,128.907,129,129.443z
							 M130.5,129.443l46.756-26.995v53.99L130.5,183.433V129.443z"/>
						<path class="st9" d="M77.994,157.738l46.756,26.994c0.232,0.134,0.491,0.201,0.75,0.201s0.518-0.067,0.75-0.201
							c0.464-0.268,0.75-0.763,0.75-1.299v-53.989c0-0.536-0.286-1.031-0.75-1.299L79.494,101.15
							c-0.232-0.134-0.491-0.201-0.75-0.201s-0.518,0.067-0.75,0.201c-0.464,0.268-0.75,0.763-0.75,1.299v53.99
							C77.244,156.974,77.53,157.469,77.994,157.738z M78.744,102.449l46.756,26.995v53.989l-46.756-26.994V102.449z"/>
						<path class="st9" d="M80.494,99.417l46.756,26.995c0.232,0.134,0.491,0.201,0.75,0.201s0.518-0.067,0.75-0.201l46.756-26.995
							c0.464-0.268,0.75-0.763,0.75-1.299s-0.286-1.031-0.75-1.299L128.75,69.825c-0.232-0.134-0.491-0.201-0.75-0.201
							s-0.518,0.067-0.75,0.201L80.494,96.819c-0.464,0.268-0.75,0.763-0.75,1.299S80.03,99.149,80.494,99.417z M128,71.124
							l46.756,26.994L128,125.113L81.244,98.118L128,71.124z"/>
					</g>
				</g>
			</g>
			<g>
				<g>
					<g>
						<path class="st2" d="M130.653,98.475V43.651c0-1.381-1.119-2.5-2.5-2.5s-2.5,1.119-2.5,2.5v54.823c0,1.381,1.119,2.5,2.5,2.5
							S130.653,99.855,130.653,98.475z"/>
					</g>
				</g>
			</g>
			<g>
				<g>
					<g>
						<g>
							<g>
								<path class="st4" d="M215.526,87.641c0-7.685-6.251-13.936-13.936-13.936s-13.936,6.251-13.936,13.936
									s6.251,13.936,13.936,13.936S215.526,95.325,215.526,87.641z M192.655,87.641c0-4.927,4.009-8.936,8.936-8.936
									s8.936,4.009,8.936,8.936s-4.009,8.936-8.936,8.936S192.655,92.567,192.655,87.641z"/>
							</g>
						</g>
					</g>
					<g>
						<g>
							<g>
								<path class="st4" d="M68.345,87.641c0-7.685-6.251-13.936-13.936-13.936s-13.936,6.251-13.936,13.936
									s6.251,13.936,13.936,13.936S68.345,95.325,68.345,87.641z M45.474,87.641c0-4.927,4.009-8.936,8.936-8.936
									s8.936,4.009,8.936,8.936s-4.009,8.936-8.936,8.936S45.474,92.567,45.474,87.641z"/>
							</g>
						</g>
					</g>
				</g>
				<g>
					<g>
						<g>
							<path class="st4" d="M141.936,211.658c0-7.685-6.251-13.936-13.936-13.936s-13.936,6.251-13.936,13.936
								s6.251,13.936,13.936,13.936S141.936,219.343,141.936,211.658z M119.064,211.658c0-4.927,4.009-8.936,8.936-8.936
								s8.936,4.009,8.936,8.936s-4.009,8.936-8.936,8.936S119.064,216.585,119.064,211.658z"/>
						</g>
					</g>
				</g>
			</g>
			<g>
				<g>
					<g>
						<g>
							<path class="st5" d="M215.526,87.641c0-7.685-6.251-13.936-13.936-13.936s-13.936,6.251-13.936,13.936
								s6.251,13.936,13.936,13.936S215.526,95.325,215.526,87.641z M189.155,87.641c0-6.857,5.579-12.436,12.436-12.436
								s12.436,5.579,12.436,12.436s-5.579,12.436-12.436,12.436S189.155,94.498,189.155,87.641z"/>
							<path class="st5" d="M212.026,87.641c0-5.754-4.681-10.436-10.436-10.436s-10.436,4.681-10.436,10.436
								s4.681,10.436,10.436,10.436S212.026,93.395,212.026,87.641z M192.655,87.641c0-4.927,4.009-8.936,8.936-8.936
								s8.936,4.009,8.936,8.936s-4.009,8.936-8.936,8.936S192.655,92.567,192.655,87.641z"/>
						</g>
					</g>
				</g>
				<g>
					<g>
						<g>
							<path class="st5" d="M68.345,87.641c0-7.685-6.251-13.936-13.936-13.936s-13.936,6.251-13.936,13.936
								s6.251,13.936,13.936,13.936S68.345,95.325,68.345,87.641z M41.974,87.641c0-6.857,5.579-12.436,12.436-12.436
								s12.436,5.579,12.436,12.436s-5.579,12.436-12.436,12.436S41.974,94.498,41.974,87.641z"/>
							<path class="st5" d="M64.845,87.641c0-5.754-4.681-10.436-10.436-10.436s-10.436,4.681-10.436,10.436
								s4.681,10.436,10.436,10.436S64.845,93.395,64.845,87.641z M45.474,87.641c0-4.927,4.009-8.936,8.936-8.936
								s8.936,4.009,8.936,8.936s-4.009,8.936-8.936,8.936S45.474,92.567,45.474,87.641z"/>
						</g>
					</g>
				</g>
				<g>
					<g>
						<g>
							<path class="st5" d="M138.436,211.658c0-5.754-4.681-10.436-10.436-10.436s-10.436,4.681-10.436,10.436
								s4.681,10.436,10.436,10.436S138.436,217.412,138.436,211.658z M119.064,211.658c0-4.927,4.009-8.936,8.936-8.936
								s8.936,4.009,8.936,8.936s-4.009,8.936-8.936,8.936S119.064,216.585,119.064,211.658z"/>
							<path class="st5" d="M141.936,211.658c0-7.685-6.251-13.936-13.936-13.936s-13.936,6.251-13.936,13.936
								s6.251,13.936,13.936,13.936S141.936,219.343,141.936,211.658z M115.564,211.658c0-6.857,5.579-12.436,12.436-12.436
								s12.436,5.579,12.436,12.436s-5.579,12.436-12.436,12.436S115.564,218.515,115.564,211.658z"/>
						</g>
					</g>
				</g>
			</g>
			<g>
				<g>
					<g>
						<path class="st2" d="M117.881,54.254l10.272-10.271l10.271,10.271c0.488,0.488,1.128,0.732,1.768,0.732
							s1.279-0.244,1.768-0.732c0.977-0.977,0.977-2.559,0-3.535L129.921,38.68c-0.977-0.977-2.559-0.977-3.535,0l-12.04,12.039
							c-0.977,0.976-0.977,2.559,0,3.535S116.904,55.23,117.881,54.254z"/>
					</g>
				</g>
			</g>
			<g>
				<g>
					<g>
						<g>
							<g>
								<path class="st2" d="M205.562,175.769c0.394,0.228,0.823,0.335,1.248,0.335c0.863,0,1.704-0.448,2.167-1.25
									c0.69-1.195,0.28-2.725-0.915-3.415l-54.2-31.293c-1.192-0.689-2.725-0.281-3.415,0.915c-0.69,1.195-0.28,2.725,0.915,3.415
									L205.562,175.769z"/>
							</g>
						</g>
					</g>
					<g>
						<g>
							<g>
								<path class="st2" d="M188.38,178.846c0.297,1.119,1.309,1.859,2.414,1.859c0.213,0,0.429-0.027,0.644-0.085l16.456-4.37
									c0.641-0.17,1.188-0.588,1.521-1.161s0.425-1.256,0.254-1.896l-4.371-16.456c-0.354-1.334-1.727-2.13-3.058-1.774
									c-1.335,0.354-2.129,1.724-1.774,3.058l3.729,14.04l-14.04,3.729C188.819,176.143,188.025,177.512,188.38,178.846z"/>
							</g>
						</g>
					</g>
				</g>
				<g>
					<g>
						<g>
							<g>
								<path class="st2" d="M49.19,176.104c0.425,0,0.854-0.107,1.248-0.335l54.2-31.293c1.195-0.69,1.605-2.22,0.915-3.415
									c-0.691-1.196-2.222-1.604-3.415-0.915l-54.2,31.293c-1.195,0.69-1.605,2.22-0.915,3.415
									C47.486,175.655,48.327,176.104,49.19,176.104z"/>
							</g>
						</g>
					</g>
					<g>
						<g>
							<g>
								<path class="st2" d="M53.761,154.962c-1.329-0.354-2.703,0.44-3.058,1.774l-4.371,16.456
									c-0.171,0.641-0.079,1.323,0.254,1.896s0.88,0.991,1.521,1.161l16.456,4.37c0.215,0.058,0.431,0.085,0.644,0.085
									c1.105,0,2.117-0.74,2.414-1.859c0.354-1.334-0.439-2.703-1.774-3.058l-14.04-3.729l3.729-14.04
									C55.89,156.686,55.096,155.316,53.761,154.962z"/>
							</g>
						</g>
					</g>
				</g>
			</g>
		</g>
		<g>
			<g>
				<g>
					<g>
						<path class="st3" d="M128.153,100.975c1.381,0,2.5-1.119,2.5-2.5V46.482l7.771,7.771c0.488,0.488,1.128,0.732,1.768,0.732
							s1.279-0.244,1.768-0.732c0.977-0.977,0.977-2.559,0-3.535L129.921,38.68c-0.488-0.488-1.128-0.732-1.768-0.732
							s-1.279,0.244-1.768,0.732l-12.04,12.039c-0.977,0.976-0.977,2.559,0,3.535c0.488,0.488,1.128,0.732,1.768,0.732
							s1.279-0.244,1.768-0.732l7.772-7.772v51.992C125.653,99.855,126.772,100.975,128.153,100.975z M124.593,45.421l-7.773,7.772
							c-0.189,0.189-0.44,0.293-0.707,0.293s-0.518-0.104-0.707-0.293c-0.189-0.189-0.293-0.44-0.293-0.707
							c0-0.267,0.104-0.517,0.293-0.706l12.04-12.039c0.189-0.189,0.44-0.293,0.707-0.293s0.518,0.104,0.707,0.293l12.039,12.039
							c0.189,0.189,0.293,0.44,0.293,0.707s-0.104,0.518-0.293,0.707c-0.189,0.189-0.44,0.293-0.707,0.293s-0.518-0.104-0.707-0.293
							l-7.771-7.771c-0.287-0.287-0.671-0.439-1.061-0.439c-0.193,0-0.388,0.037-0.574,0.114c-0.561,0.232-0.926,0.779-0.926,1.386
							v51.992c0,0.552-0.449,1-1,1s-1-0.448-1-1V46.482c0-0.607-0.365-1.154-0.926-1.386c-0.186-0.077-0.38-0.114-0.574-0.114
							C125.263,44.982,124.88,45.135,124.593,45.421z"/>
					</g>
				</g>
			</g>
			<g>
				<g>
					<g>
						<path class="st3" d="M152.615,139.811c-0.864,0-1.705,0.448-2.168,1.25c-0.69,1.195-0.28,2.725,0.915,3.415l49.369,28.504
							l-10.576,2.809c-1.335,0.354-2.129,1.724-1.774,3.058c0.297,1.119,1.309,1.859,2.414,1.859c0.213,0,0.429-0.027,0.644-0.085
							l16.456-4.37c0.641-0.17,1.188-0.588,1.521-1.161s0.425-1.256,0.254-1.896l-4.371-16.456c-0.297-1.119-1.31-1.859-2.415-1.859
							c-0.213,0-0.428,0.027-0.643,0.085c-1.335,0.354-2.129,1.724-1.774,3.058l2.834,10.669l-49.438-28.543
							C153.469,139.918,153.039,139.811,152.615,139.811z M203.299,170.189c0.323,0,0.644-0.104,0.912-0.309
							c0.481-0.368,0.693-0.99,0.538-1.576l-2.834-10.669c-0.069-0.258-0.033-0.527,0.101-0.758c0.134-0.231,0.35-0.396,0.61-0.465
							c0.084-0.022,0.17-0.034,0.256-0.034c0.452,0,0.849,0.306,0.965,0.744l4.371,16.458c0.068,0.253,0.031,0.529-0.102,0.756
							c-0.132,0.228-0.354,0.397-0.609,0.465l-16.46,4.371c-0.083,0.022-0.169,0.034-0.255,0.034c-0.452,0-0.848-0.306-0.964-0.745
							c-0.069-0.258-0.033-0.527,0.101-0.758c0.134-0.231,0.35-0.396,0.608-0.465l10.576-2.809c0.587-0.156,1.022-0.65,1.102-1.252
							s-0.211-1.193-0.737-1.497l-49.369-28.504c-0.478-0.276-0.642-0.889-0.366-1.366c0.178-0.308,0.511-0.5,0.869-0.5
							c0.176,0,0.342,0.045,0.497,0.134l49.438,28.543C202.782,170.122,203.041,170.189,203.299,170.189z"/>
					</g>
				</g>
			</g>
			<g>
				<g>
					<g>
						<path class="st3" d="M53.761,154.962c-0.214-0.057-0.429-0.084-0.641-0.084c-1.104,0-2.119,0.74-2.416,1.859l-4.371,16.456
							c-0.171,0.641-0.079,1.323,0.254,1.896s0.88,0.991,1.521,1.161l16.456,4.37c0.215,0.058,0.431,0.085,0.644,0.085
							c1.105,0,2.117-0.74,2.414-1.859c0.354-1.334-0.439-2.703-1.774-3.058l-10.576-2.809l49.369-28.504
							c1.195-0.69,1.605-2.22,0.915-3.415c-0.464-0.802-1.305-1.25-2.168-1.25c-0.424,0-0.854,0.108-1.247,0.335l-49.438,28.543
							l2.834-10.669C55.89,156.686,55.096,155.316,53.761,154.962z M54.085,157.635l-2.834,10.669
							c-0.156,0.586,0.057,1.208,0.538,1.576c0.268,0.205,0.589,0.309,0.912,0.309c0.258,0,0.517-0.066,0.75-0.201l49.438-28.543
							c0.154-0.089,0.321-0.134,0.496-0.134c0.358,0,0.691,0.192,0.87,0.5c0.276,0.477,0.111,1.09-0.366,1.366L54.519,171.68
							c-0.526,0.304-0.817,0.895-0.737,1.497s0.515,1.096,1.102,1.252l10.576,2.809c0.258,0.069,0.474,0.234,0.608,0.465
							c0.134,0.231,0.17,0.5,0.101,0.759c-0.116,0.438-0.513,0.744-0.964,0.744c-0.086,0-0.172-0.011-0.259-0.035l-16.457-4.37
							c-0.254-0.067-0.476-0.237-0.608-0.465c-0.132-0.228-0.169-0.503-0.101-0.758l4.371-16.456
							c0.116-0.438,0.514-0.744,0.966-0.744c0.085,0,0.171,0.011,0.256,0.034c0.258,0.069,0.474,0.234,0.608,0.465
							C54.118,157.107,54.154,157.376,54.085,157.635z"/>
					</g>
				</g>
			</g>
		</g>
	</g>
</g>
</svg>
