<?xml version="1.0" encoding="utf-8"?>
<!-- Generator: Adobe Illustrator 18.0.0, SVG Export Plug-In . SVG Version: 6.00 Build 0)  -->
<!DOCTYPE svg PUBLIC "-//W3C//DTD SVG 1.1//EN" "http://www.w3.org/Graphics/SVG/1.1/DTD/svg11.dtd">
<svg version="1.1" id="Icon_Set" xmlns="http://www.w3.org/2000/svg" xmlns:xlink="http://www.w3.org/1999/xlink" x="0px" y="0px"
	 viewBox="0 0 256 256" style="enable-background:new 0 0 256 256;" xml:space="preserve">
<style type="text/css">
	.st0{fill:#484771;}
	.st1{fill:#F1C48B;}
	.st2{fill:#D5E6F7;}
	.st3{fill:#A0D1F2;}
	.st4{fill:#FD919F;}
	.st5{fill:#E0667D;}
	.st6{fill:#504774;}
	.st7{fill:#7BACF1;}
	.st8{fill:#FFFFFF;}
	.st9{fill:#D4E7F8;}
	.st10{fill:#A3D0F1;}
	.st11{fill:#4C4372;}
	.st12{fill:#7BABF3;}
	.st13{fill:#FD919E;}
	.st14{fill:#D3E6F8;}
	.st15{fill:#E8677D;}
	.st16{fill:#A4CFF2;}
</style>
<g>
	<g>
		<circle class="st1" cx="128" cy="128" r="103.873"/>
	</g>
	<g>
		<path class="st6" d="M53.755,204.964c-1.657,0-3-1.343-3-3v-35.519c0-1.657,1.343-3,3-3h12.851v-24.904c0-1.657,1.343-3,3-3
			s3,1.343,3,3v27.904c0,1.657-1.343,3-3,3H56.755v32.519C56.755,203.621,55.412,204.964,53.755,204.964z"/>
	</g>
	<g>
		<path class="st6" d="M85.366,188.381c-1.657,0-3-1.343-3-3v-47.31c0-1.657,1.343-3,3-3s3,1.343,3,3v47.31
			C88.366,187.038,87.022,188.381,85.366,188.381z"/>
	</g>
	<g>
		<circle class="st4" cx="85.366" cy="188.145" r="9.673"/>
	</g>
	<g>
		<path class="st6" d="M85.366,200.818c-6.988,0-12.673-5.685-12.673-12.673s5.685-12.673,12.673-12.673s12.673,5.685,12.673,12.673
			S92.354,200.818,85.366,200.818z M85.366,181.472c-3.68,0-6.673,2.994-6.673,6.673s2.994,6.673,6.673,6.673
			s6.673-2.994,6.673-6.673S89.045,181.472,85.366,181.472z"/>
	</g>
	<g>
		<circle class="st4" cx="53.755" cy="203.691" r="9.673"/>
	</g>
	<g>
		<path class="st6" d="M53.755,216.365c-6.988,0-12.673-5.685-12.673-12.673s5.685-12.673,12.673-12.673s12.673,5.685,12.673,12.673
			S60.743,216.365,53.755,216.365z M53.755,197.018c-3.68,0-6.673,2.994-6.673,6.673s2.994,6.673,6.673,6.673
			s6.673-2.994,6.673-6.673S57.435,197.018,53.755,197.018z"/>
	</g>
	<g>
		<path class="st6" d="M202.245,204.964c-1.657,0-3-1.343-3-3v-32.519h-12.851c-1.657,0-3-1.343-3-3v-27.904c0-1.657,1.343-3,3-3
			s3,1.343,3,3v24.904h12.851c1.657,0,3,1.343,3,3v35.519C205.245,203.621,203.902,204.964,202.245,204.964z"/>
	</g>
	<g>
		<path class="st6" d="M170.635,188.381c-1.657,0-3-1.343-3-3v-47.31c0-1.657,1.343-3,3-3s3,1.343,3,3v47.31
			C173.635,187.038,172.292,188.381,170.635,188.381z"/>
	</g>
	<g>
		<circle class="st4" cx="170.634" cy="188.145" r="9.673"/>
	</g>
	<g>
		<path class="st6" d="M170.635,200.818c-6.988,0-12.674-5.685-12.674-12.673s5.686-12.673,12.674-12.673
			s12.673,5.685,12.673,12.673S177.623,200.818,170.635,200.818z M170.635,181.472c-3.68,0-6.674,2.994-6.674,6.673
			s2.994,6.673,6.674,6.673s6.673-2.994,6.673-6.673S174.314,181.472,170.635,181.472z"/>
	</g>
	<g>
		<circle class="st4" cx="202.245" cy="203.691" r="9.673"/>
	</g>
	<g>
		<path class="st6" d="M202.245,216.365c-6.988,0-12.673-5.685-12.673-12.673s5.685-12.673,12.673-12.673
			s12.674,5.685,12.674,12.673S209.233,216.365,202.245,216.365z M202.245,197.018c-3.68,0-6.673,2.994-6.673,6.673
			s2.993,6.673,6.673,6.673s6.674-2.994,6.674-6.673S205.925,197.018,202.245,197.018z"/>
	</g>
	<g>
		<path class="st2" d="M194.724,138.54c14.16,0,25.639-11.479,25.639-25.639s-11.479-25.639-25.639-25.639
			c-0.608,0-1.203,0.049-1.8,0.091c-5.902-10.18-16.908-17.032-29.522-17.032c-1.479,0-2.933,0.105-4.363,0.287
			c-7.577-16.505-24.239-27.974-43.59-27.974c-19.269,0-35.874,11.372-43.496,27.765c-0.73-0.047-1.465-0.079-2.207-0.079
			c-18.838,0-34.109,15.271-34.109,34.109c0,18.838,15.271,34.109,34.109,34.109H194.724z"/>
	</g>
	<g>
		<g>
			<path class="st3" d="M194.724,87.263c-0.608,0-1.203,0.049-1.8,0.091c-5.902-10.18-16.908-17.032-29.522-17.032
				c-1.479,0-2.933,0.105-4.362,0.287c-7.578-16.505-24.239-27.973-43.59-27.973c-9.844,0-18.989,2.973-26.6,8.062
				c4.65-1.504,9.608-2.324,14.76-2.324c18.625,0,34.758,10.624,42.699,26.137c0.557,1.089,1.73,1.717,2.95,1.631
				c0.761-0.054,1.529-0.082,2.303-0.082c11.995,0,22.537,6.197,28.617,15.559c0.586,0.902,1.611,1.384,2.687,1.382
				c0.006,0,0.012,0,0.018,0c14.16,0,25.638,11.479,25.638,25.639c0,7.771-3.462,14.73-8.923,19.431
				c11.827-2.278,20.763-12.678,20.763-25.17C220.363,98.742,208.884,87.263,194.724,87.263z"/>
		</g>
	</g>
	<g>
		<path class="st6" d="M194.725,141.541H69.747c-20.462,0-37.109-16.647-37.109-37.109s16.647-37.109,37.109-37.109
			c0.123,0,0.248,0.001,0.373,0.002c8.685-16.886,26.26-27.689,45.33-27.689c19.125,0,36.705,10.835,45.375,27.781
			c0.874-0.063,1.735-0.095,2.577-0.095c12.564,0,24.331,6.446,31.144,16.942c0.06,0,0.119-0.001,0.179-0.001
			c15.791,0,28.638,12.847,28.638,28.639S210.516,141.541,194.725,141.541z M69.747,73.322c-17.154,0-31.109,13.956-31.109,31.109
			s13.956,31.109,31.109,31.109h124.978c12.482,0,22.638-10.156,22.638-22.639s-10.155-22.639-22.638-22.639
			c-0.452,0-0.896,0.034-1.34,0.066l-0.253,0.018c-1.151,0.076-2.229-0.498-2.804-1.488c-5.556-9.583-15.873-15.537-26.926-15.537
			c-1.277,0-2.617,0.088-3.982,0.263c-1.3,0.167-2.56-0.533-3.106-1.724c-7.314-15.932-23.354-26.226-40.864-26.226
			c-17.419,0-33.424,10.217-40.776,26.03c-0.521,1.121-1.676,1.798-2.91,1.729C70.983,73.345,70.342,73.322,69.747,73.322z"/>
	</g>
	<g>
		<path class="st4" d="M148.798,113.657h-41.596c-3.717,0-6.73,3.013-6.73,6.73v39.328c0,3.717,3.013,6.73,6.73,6.73h41.596
			c3.717,0,6.73-3.013,6.73-6.73v-39.328C155.528,116.67,152.515,113.657,148.798,113.657z"/>
	</g>
	<g>
		<path class="st5" d="M148.798,113.657h-11.784c3.717,0,6.73,3.013,6.73,6.73v39.328c0,3.717-3.013,6.73-6.73,6.73h11.784
			c3.717,0,6.73-3.013,6.73-6.73v-39.328C155.528,116.67,152.515,113.657,148.798,113.657z"/>
	</g>
	<g>
		<path class="st6" d="M134.968,150.243l-2.891-9.362c1.977-1.365,3.238-3.693,3.098-6.307c-0.195-3.652-3.231-6.644-6.886-6.787
			c-4.101-0.161-7.475,3.115-7.475,7.18c0,2.454,1.232,4.618,3.109,5.914l-2.891,9.362c-0.319,1.032,0.453,2.079,1.534,2.079h10.869
			C134.515,152.321,135.287,151.275,134.968,150.243z"/>
	</g>
	<g>
		<path class="st6" d="M148.798,169.445h-41.596c-5.365,0-9.729-4.365-9.729-9.73v-39.328c0-5.365,4.365-9.73,9.729-9.73h41.596
			c5.365,0,9.729,4.365,9.729,9.73v39.328C158.527,165.08,154.163,169.445,148.798,169.445z M107.202,116.657
			c-2.057,0-3.729,1.673-3.729,3.73v39.328c0,2.057,1.673,3.73,3.729,3.73h41.596c2.057,0,3.729-1.673,3.729-3.73v-39.328
			c0-2.057-1.673-3.73-3.729-3.73H107.202z"/>
	</g>
	<g>
		<path class="st6" d="M143.744,116.657c-1.657,0-3-1.343-3-3V96.591c0-7.027-5.717-12.744-12.744-12.744
			s-12.744,5.717-12.744,12.744v17.066c0,1.657-1.343,3-3,3s-3-1.343-3-3V96.591c0-10.335,8.409-18.744,18.744-18.744
			c10.336,0,18.744,8.409,18.744,18.744v17.066C146.744,115.314,145.401,116.657,143.744,116.657z"/>
	</g>
</g>
</svg>
