<?xml version="1.0" encoding="utf-8"?>
<!-- Generator: Adobe Illustrator 24.0.0, SVG Export Plug-In . SVG Version: 6.00 Build 0)  -->
<svg version="1.1" id="Layer_1" xmlns="http://www.w3.org/2000/svg" xmlns:xlink="http://www.w3.org/1999/xlink" x="0px" y="0px"
	 viewBox="0 0 256 256" style="enable-background:new 0 0 256 256;" xml:space="preserve">
<style type="text/css">
	.st0{fill:#382B73;}
	.st1{fill:#291B4A;}
	.st2{fill:#ED9ABC;}
	.st3{fill:#E54890;}
	.st4{fill:#D3D3D3;}
	.st5{fill:#EBE7F2;}
	.st6{fill:#F9B087;}
	.st7{fill:#FF8639;}
	.st8{fill:#65C1D6;}
	.st9{fill:#149CB2;}
</style>
<g>
	<g>
		<g>
			<g>
				<g>
					<circle class="st0" cx="128" cy="128" r="119.4"/>
				</g>
			</g>
		</g>
	</g>
	<g>
		<g>
			<g>
				<g>
					<path class="st1" d="M200.06,166.646c1.381,0,2.5-1.119,2.5-2.5V60.319c0-1.381-1.119-2.5-2.5-2.5H55.94
						c-1.381,0-2.5,1.119-2.5,2.5v103.827c0,1.381,1.119,2.5,2.5,2.5s2.5-1.119,2.5-2.5V62.819H197.56v101.327
						C197.56,165.527,198.679,166.646,200.06,166.646z"/>
				</g>
			</g>
		</g>
		<g>
			<g>
				<g>
					<path class="st1" d="M186.45,160.996c1.381,0,2.5-1.119,2.5-2.5V72.24c0-1.381-1.119-2.5-2.5-2.5H69.55
						c-1.381,0-2.5,1.119-2.5,2.5v86.256c0,1.381,1.119,2.5,2.5,2.5H186.45z M72.05,74.74h111.9v81.256H72.05V74.74z"/>
				</g>
			</g>
		</g>
		<g>
			<g>
				<g>
					<path class="st1" d="M214.658,176.659c1.381,0,2.5-1.119,2.5-2.5s-1.119-2.5-2.5-2.5h-43.056c-1.381,0-2.5,1.119-2.5,2.5
						s1.119,2.5,2.5,2.5H214.658z"/>
				</g>
			</g>
		</g>
		<g>
			<g>
				<g>
					<path class="st1" d="M84.397,176.659c1.381,0,2.5-1.119,2.5-2.5s-1.119-2.5-2.5-2.5H41.342c-1.381,0-2.5,1.119-2.5,2.5
						s1.119,2.5,2.5,2.5H84.397z"/>
				</g>
			</g>
		</g>
		<g>
			<g>
				<g>
					<path class="st1" d="M155.75,115.368c0-15.302-12.448-27.75-27.75-27.75s-27.75,12.448-27.75,27.75s12.448,27.75,27.75,27.75
						S155.75,130.67,155.75,115.368z M146.558,102.235l-10.638,5.89c-0.057-0.062-0.111-0.126-0.169-0.186l6.261-10.473
						C143.748,98.827,145.28,100.434,146.558,102.235z M105.25,115.368c0-12.544,10.206-22.75,22.75-22.75
						c3.493,0,6.805,0.793,9.765,2.207l-6.221,10.406c-1.112-0.39-2.301-0.613-3.544-0.613c-5.928,0-10.75,4.822-10.75,10.75
						s4.822,10.75,10.75,10.75s10.75-4.822,10.75-10.75c0-0.996-0.147-1.956-0.401-2.872l10.643-5.893
						c1.131,2.699,1.758,5.66,1.758,8.765c0,12.544-10.206,22.75-22.75,22.75S105.25,127.912,105.25,115.368z M133.75,115.368
						c0,3.171-2.579,5.75-5.75,5.75s-5.75-2.579-5.75-5.75s2.579-5.75,5.75-5.75S133.75,112.197,133.75,115.368z"/>
				</g>
			</g>
		</g>
		<g>
			<g>
				<g>
					<path class="st1" d="M140.427,200.143c0.488,0.488,1.128,0.732,1.768,0.732s1.279-0.244,1.768-0.732l8.651-8.652
						c0.977-0.977,0.977-2.559,0-3.535l-8.651-8.651c-0.977-0.977-2.559-0.977-3.535,0s-0.977,2.559,0,3.535l6.884,6.884
						l-6.884,6.885C139.45,197.584,139.45,199.167,140.427,200.143z"/>
				</g>
			</g>
		</g>
		<g>
			<g>
				<g>
					<path class="st1" d="M115.573,179.304c-0.977-0.977-2.559-0.977-3.535,0l-8.651,8.651c-0.977,0.977-0.977,2.559,0,3.535
						l8.651,8.652c0.488,0.488,1.128,0.732,1.768,0.732s1.279-0.244,1.768-0.732c0.977-0.976,0.977-2.559,0-3.535l-6.884-6.885
						l6.884-6.884C116.55,181.862,116.55,180.28,115.573,179.304z"/>
				</g>
			</g>
		</g>
		<g>
			<g>
				<g>
					<path class="st1" d="M123.426,200.875c0.882,0,1.736-0.467,2.191-1.294l9.531-17.304c0.666-1.209,0.227-2.729-0.983-3.396
						c-1.21-0.668-2.729-0.228-3.396,0.983l-9.531,17.304c-0.666,1.209-0.227,2.729,0.983,3.396
						C122.604,200.775,123.018,200.875,123.426,200.875z"/>
				</g>
			</g>
		</g>
		<g>
			<g>
				<g>
					<path class="st1" d="M161.603,212.181c1.381,0,2.5-1.119,2.5-2.5v-39.915c0-1.381-1.119-2.5-2.5-2.5H94.397
						c-1.381,0-2.5,1.119-2.5,2.5v39.915c0,1.381,1.119,2.5,2.5,2.5H161.603z M96.897,172.266h62.205v34.915H96.897V172.266z"/>
				</g>
			</g>
		</g>
	</g>
	<g>
		<g>
			<g>
				<g>
					<g>
						<path class="st8" d="M200.06,162.646c1.381,0,2.5-1.119,2.5-2.5V56.319c0-1.381-1.119-2.5-2.5-2.5H55.94
							c-1.381,0-2.5,1.119-2.5,2.5v103.827c0,1.381,1.119,2.5,2.5,2.5s2.5-1.119,2.5-2.5V58.819H197.56v101.327
							C197.56,161.527,198.679,162.646,200.06,162.646z"/>
					</g>
				</g>
			</g>
			<g>
				<g>
					<g>
						<path class="st8" d="M186.45,156.996c1.381,0,2.5-1.119,2.5-2.5V68.24c0-1.381-1.119-2.5-2.5-2.5H69.55
							c-1.381,0-2.5,1.119-2.5,2.5v86.256c0,1.381,1.119,2.5,2.5,2.5H186.45z M72.05,70.74h111.9v81.256H72.05V70.74z"/>
					</g>
				</g>
			</g>
			<g>
				<g>
					<g>
						<path class="st8" d="M214.658,172.659c1.381,0,2.5-1.119,2.5-2.5s-1.119-2.5-2.5-2.5h-43.056c-1.381,0-2.5,1.119-2.5,2.5
							s1.119,2.5,2.5,2.5H214.658z"/>
					</g>
				</g>
			</g>
			<g>
				<g>
					<g>
						<path class="st8" d="M84.397,172.659c1.381,0,2.5-1.119,2.5-2.5s-1.119-2.5-2.5-2.5H41.342c-1.381,0-2.5,1.119-2.5,2.5
							s1.119,2.5,2.5,2.5H84.397z"/>
					</g>
				</g>
			</g>
		</g>
		<g>
			<g>
				<g>
					<g>
						<path class="st9" d="M200.06,162.646c1.381,0,2.5-1.119,2.5-2.5V56.319c0-1.381-1.119-2.5-2.5-2.5H55.94
							c-1.381,0-2.5,1.119-2.5,2.5v103.827c0,1.381,1.119,2.5,2.5,2.5s2.5-1.119,2.5-2.5V58.819H197.56v101.327
							C197.56,161.527,198.679,162.646,200.06,162.646z M58.44,57.319c-0.828,0-1.5,0.672-1.5,1.5v101.327c0,0.551-0.449,1-1,1
							s-1-0.449-1-1V56.319c0-0.551,0.449-1,1-1H200.06c0.551,0,1,0.449,1,1v103.827c0,0.551-0.449,1-1,1s-1-0.449-1-1V58.819
							c0-0.828-0.672-1.5-1.5-1.5H58.44z"/>
					</g>
				</g>
			</g>
			<g>
				<g>
					<g>
						<path class="st9" d="M72.05,153.496h111.9c0.828,0,1.5-0.672,1.5-1.5V70.74c0-0.828-0.672-1.5-1.5-1.5H72.05
							c-0.828,0-1.5,0.672-1.5,1.5v81.256C70.55,152.824,71.221,153.496,72.05,153.496z M72.05,70.74h111.9v81.256H72.05V70.74z"/>
						<path class="st9" d="M186.45,156.996c1.381,0,2.5-1.119,2.5-2.5V68.24c0-1.381-1.119-2.5-2.5-2.5H69.55
							c-1.381,0-2.5,1.119-2.5,2.5v86.256c0,1.381,1.119,2.5,2.5,2.5H186.45z M68.55,154.496V68.24c0-0.551,0.449-1,1-1h116.9
							c0.551,0,1,0.449,1,1v86.256c0,0.551-0.449,1-1,1H69.55C68.998,155.496,68.55,155.047,68.55,154.496z"/>
					</g>
				</g>
			</g>
			<g>
				<g>
					<g>
						<path class="st9" d="M214.658,172.659c1.381,0,2.5-1.119,2.5-2.5s-1.119-2.5-2.5-2.5h-43.056c-1.381,0-2.5,1.119-2.5,2.5
							s1.119,2.5,2.5,2.5H214.658z M170.603,170.159c0-0.552,0.449-1,1-1h43.056c0.551,0,1,0.448,1,1s-0.449,1-1,1h-43.056
							C171.051,171.159,170.603,170.711,170.603,170.159z"/>
					</g>
				</g>
			</g>
			<g>
				<g>
					<g>
						<path class="st9" d="M84.397,172.659c1.381,0,2.5-1.119,2.5-2.5s-1.119-2.5-2.5-2.5H41.342c-1.381,0-2.5,1.119-2.5,2.5
							s1.119,2.5,2.5,2.5H84.397z M40.342,170.159c0-0.552,0.449-1,1-1h43.056c0.551,0,1,0.448,1,1s-0.449,1-1,1H41.342
							C40.79,171.159,40.342,170.711,40.342,170.159z"/>
					</g>
				</g>
			</g>
		</g>
		<g>
			<g>
				<g>
					<g>
						<path class="st6" d="M155.75,111.368c0-15.302-12.448-27.75-27.75-27.75s-27.75,12.448-27.75,27.75s12.448,27.75,27.75,27.75
							S155.75,126.67,155.75,111.368z M105.25,111.368c0-12.544,10.206-22.75,22.75-22.75s22.75,10.206,22.75,22.75
							s-10.206,22.75-22.75,22.75S105.25,123.912,105.25,111.368z"/>
					</g>
				</g>
			</g>
			<g>
				<g>
					<g>
						<path class="st6" d="M155.75,111.368c0-15.302-12.448-27.75-27.75-27.75s-27.75,12.448-27.75,27.75s12.448,27.75,27.75,27.75
							S155.75,126.67,155.75,111.368z M105.25,111.368c0-12.544,10.206-22.75,22.75-22.75s22.75,10.206,22.75,22.75
							s-10.206,22.75-22.75,22.75S105.25,123.912,105.25,111.368z"/>
					</g>
				</g>
			</g>
			<g>
				<g>
					<g>
						<path class="st6" d="M138.75,111.368c0-5.928-4.822-10.75-10.75-10.75s-10.75,4.822-10.75,10.75s4.822,10.75,10.75,10.75
							S138.75,117.296,138.75,111.368z M122.25,111.368c0-3.171,2.579-5.75,5.75-5.75s5.75,2.579,5.75,5.75s-2.579,5.75-5.75,5.75
							S122.25,114.539,122.25,111.368z"/>
					</g>
				</g>
			</g>
			<g>
				<g>
					<g>
						<path class="st6" d="M138.75,111.368c0-5.928-4.822-10.75-10.75-10.75s-10.75,4.822-10.75,10.75s4.822,10.75,10.75,10.75
							S138.75,117.296,138.75,111.368z M122.25,111.368c0-3.171,2.579-5.75,5.75-5.75s5.75,2.579,5.75,5.75s-2.579,5.75-5.75,5.75
							S122.25,114.539,122.25,111.368z"/>
					</g>
				</g>
			</g>
			<g>
				<g>
					<g>
						<path class="st6" d="M132.528,106.954c0.851,0,1.68-0.434,2.147-1.217l8.693-14.542c0.709-1.186,0.322-2.721-0.862-3.429
							c-1.186-0.708-2.721-0.322-3.429,0.862l-8.693,14.542c-0.709,1.186-0.322,2.721,0.862,3.429
							C131.649,106.84,132.092,106.954,132.528,106.954z"/>
					</g>
				</g>
			</g>
			<g>
				<g>
					<g>
						<path class="st6" d="M135.233,109.864c0.41,0,0.825-0.101,1.209-0.313l14.833-8.213c1.208-0.669,1.645-2.19,0.977-3.398
							c-0.67-1.208-2.19-1.644-3.398-0.977l-14.833,8.213c-1.208,0.669-1.645,2.19-0.977,3.398
							C133.501,109.399,134.354,109.864,135.233,109.864z"/>
					</g>
				</g>
			</g>
		</g>
		<g>
			<g>
				<g>
					<g>
						<g>
							<path class="st6" d="M140.427,196.143c0.488,0.488,1.128,0.732,1.768,0.732s1.279-0.244,1.768-0.732l8.651-8.652
								c0.977-0.977,0.977-2.559,0-3.535l-8.651-8.651c-0.977-0.977-2.559-0.977-3.535,0s-0.977,2.559,0,3.535l6.884,6.884
								l-6.884,6.885C139.45,193.584,139.45,195.167,140.427,196.143z"/>
						</g>
					</g>
				</g>
				<g>
					<g>
						<g>
							<path class="st6" d="M115.573,175.304c-0.977-0.977-2.559-0.977-3.535,0l-8.651,8.651c-0.977,0.977-0.977,2.559,0,3.535
								l8.651,8.652c0.488,0.488,1.128,0.732,1.768,0.732s1.279-0.244,1.768-0.732c0.977-0.976,0.977-2.559,0-3.535l-6.884-6.885
								l6.884-6.884C116.55,177.862,116.55,176.28,115.573,175.304z"/>
						</g>
					</g>
				</g>
				<g>
					<g>
						<g>
							<path class="st6" d="M123.426,196.875c0.882,0,1.736-0.467,2.191-1.294l9.531-17.304c0.666-1.209,0.227-2.729-0.983-3.396
								c-1.21-0.667-2.729-0.228-3.396,0.983l-9.531,17.304c-0.666,1.209-0.227,2.729,0.983,3.396
								C122.604,196.775,123.018,196.875,123.426,196.875z"/>
						</g>
					</g>
				</g>
			</g>
			<g>
				<g>
					<g>
						<path class="st4" d="M161.603,208.181c1.381,0,2.5-1.119,2.5-2.5v-39.915c0-1.381-1.119-2.5-2.5-2.5H94.397
							c-1.381,0-2.5,1.119-2.5,2.5v39.915c0,1.381,1.119,2.5,2.5,2.5H161.603z M96.897,168.266h62.205v34.915H96.897V168.266z"/>
					</g>
				</g>
			</g>
			<g>
				<g>
					<g>
						<g>
							<path class="st5" d="M96.897,204.681h62.205c0.828,0,1.5-0.672,1.5-1.5v-34.915c0-0.828-0.672-1.5-1.5-1.5H96.897
								c-0.828,0-1.5,0.672-1.5,1.5v34.915C95.397,204.009,96.069,204.681,96.897,204.681z M96.897,168.266h62.205v34.915H96.897
								V168.266z"/>
							<path class="st5" d="M161.603,208.181c1.381,0,2.5-1.119,2.5-2.5v-39.915c0-1.381-1.119-2.5-2.5-2.5H94.397
								c-1.381,0-2.5,1.119-2.5,2.5v39.915c0,1.381,1.119,2.5,2.5,2.5H161.603z M93.397,205.681v-39.915c0-0.552,0.449-1,1-1h67.205
								c0.551,0,1,0.448,1,1v39.915c0,0.552-0.449,1-1,1H94.397C93.846,206.681,93.397,206.232,93.397,205.681z"/>
						</g>
					</g>
				</g>
			</g>
		</g>
		<g>
			<g>
				<g>
					<g>
						<path class="st7" d="M134.669,104.977l0.072,0.079l0.073,0.081c0.292,0.32,0.697,0.488,1.108,0.488
							c0.248,0,0.498-0.061,0.726-0.188l10.638-5.89c0.374-0.207,0.641-0.563,0.736-0.979c0.095-0.416,0.008-0.853-0.239-1.201
							c-1.362-1.919-2.992-3.628-4.844-5.081c-0.266-0.209-0.593-0.32-0.926-0.32c-0.091,0-0.183,0.008-0.274,0.025
							c-0.424,0.079-0.793,0.335-1.014,0.705l-6.261,10.473C134.117,103.749,134.201,104.49,134.669,104.977z M142.012,93.466
							c1.736,1.361,3.268,2.968,4.546,4.769l-10.638,5.89c-0.057-0.062-0.111-0.126-0.169-0.186L142.012,93.466z"/>
						<path class="st7" d="M155.75,111.368c0-15.302-12.448-27.75-27.75-27.75s-27.75,12.448-27.75,27.75s12.448,27.75,27.75,27.75
							S155.75,126.67,155.75,111.368z M101.75,111.368c0-14.474,11.776-26.25,26.25-26.25s26.25,11.776,26.25,26.25
							s-11.776,26.25-26.25,26.25S101.75,125.843,101.75,111.368z"/>
						<path class="st7" d="M128,104.118c-3.998,0-7.25,3.252-7.25,7.25s3.252,7.25,7.25,7.25s7.25-3.252,7.25-7.25
							S131.998,104.118,128,104.118z M128,117.118c-3.171,0-5.75-2.579-5.75-5.75s2.579-5.75,5.75-5.75s5.75,2.579,5.75,5.75
							S131.171,117.118,128,117.118z"/>
						<path class="st7" d="M152.25,111.368c0-3.232-0.631-6.376-1.875-9.345c-0.165-0.393-0.489-0.698-0.891-0.837
							c-0.16-0.056-0.326-0.083-0.492-0.083c-0.251,0-0.502,0.063-0.727,0.188l-10.643,5.893c-0.607,0.336-0.905,1.045-0.719,1.714
							c0.23,0.827,0.347,1.658,0.347,2.47c0,5.101-4.15,9.25-9.25,9.25s-9.25-4.149-9.25-9.25s4.15-9.25,9.25-9.25
							c1.023,0,2.049,0.178,3.048,0.528c0.163,0.057,0.331,0.085,0.496,0.085c0.516,0,1.011-0.267,1.288-0.73l6.221-10.406
							c0.217-0.363,0.271-0.799,0.148-1.204c-0.122-0.404-0.409-0.738-0.79-0.92c-3.271-1.561-6.774-2.353-10.411-2.353
							c-13.371,0-24.25,10.878-24.25,24.25s10.879,24.25,24.25,24.25S152.25,124.74,152.25,111.368z M105.25,111.368
							c0-12.544,10.206-22.75,22.75-22.75c3.493,0,6.805,0.793,9.765,2.207l-6.221,10.406c-1.112-0.39-2.301-0.613-3.544-0.613
							c-5.928,0-10.75,4.822-10.75,10.75s4.822,10.75,10.75,10.75s10.75-4.822,10.75-10.75c0-0.996-0.147-1.956-0.401-2.872
							l10.643-5.893c1.131,2.699,1.758,5.66,1.758,8.765c0,12.544-10.206,22.75-22.75,22.75S105.25,123.912,105.25,111.368z"/>
					</g>
				</g>
			</g>
			<g>
				<g>
					<g>
						<path class="st7" d="M140.427,196.143c0.488,0.488,1.128,0.732,1.768,0.732s1.279-0.244,1.768-0.732l8.651-8.652
							c0.977-0.977,0.977-2.559,0-3.535l-8.651-8.651c-0.488-0.488-1.128-0.732-1.768-0.732s-1.279,0.244-1.768,0.732
							c-0.977,0.977-0.977,2.559,0,3.535l6.884,6.884l-6.884,6.885C139.45,193.584,139.45,195.167,140.427,196.143z
							 M141.488,193.668l6.884-6.885c0.586-0.586,0.586-1.535,0-2.121l-6.884-6.884c-0.39-0.39-0.39-1.024,0-1.414
							c0.189-0.189,0.44-0.293,0.707-0.293s0.518,0.104,0.707,0.293l8.651,8.651c0.39,0.39,0.39,1.024,0,1.414l-8.651,8.652
							c-0.189,0.189-0.44,0.293-0.707,0.293s-0.518-0.104-0.707-0.294c-0.189-0.188-0.293-0.439-0.293-0.706
							C141.194,194.108,141.298,193.857,141.488,193.668z"/>
					</g>
				</g>
			</g>
			<g>
				<g>
					<g>
						<path class="st7" d="M115.573,175.304c-0.488-0.488-1.128-0.732-1.768-0.732s-1.279,0.244-1.768,0.732l-8.651,8.651
							c-0.977,0.977-0.977,2.559,0,3.535l8.651,8.652c0.488,0.488,1.128,0.732,1.768,0.732s1.279-0.244,1.768-0.732
							c0.977-0.976,0.977-2.559,0-3.535l-6.884-6.885l6.884-6.884C116.55,177.862,116.55,176.28,115.573,175.304z M114.513,177.778
							l-6.884,6.884c-0.586,0.586-0.586,1.535,0,2.121l6.884,6.885c0.189,0.189,0.293,0.44,0.293,0.707
							c0,0.267-0.104,0.518-0.293,0.707c-0.189,0.189-0.44,0.293-0.707,0.293s-0.518-0.104-0.707-0.293l-8.651-8.652
							c-0.39-0.39-0.39-1.024,0-1.414l8.651-8.651c0.189-0.189,0.44-0.293,0.707-0.293s0.518,0.104,0.707,0.293
							C114.902,176.754,114.902,177.388,114.513,177.778z"/>
					</g>
				</g>
			</g>
			<g>
				<g>
					<g>
						<path class="st7" d="M123.426,196.875c0.882,0,1.736-0.467,2.191-1.294l9.531-17.304c0.666-1.209,0.227-2.729-0.983-3.396
							c-0.383-0.211-0.797-0.312-1.205-0.312c-0.881,0-1.735,0.467-2.19,1.295l-9.531,17.304c-0.666,1.209-0.227,2.729,0.983,3.396
							C122.604,196.775,123.018,196.875,123.426,196.875z M122.552,193.893l9.532-17.304c0.176-0.319,0.511-0.518,0.876-0.518
							c0.169,0,0.331,0.042,0.482,0.125c0.234,0.129,0.404,0.341,0.478,0.597c0.074,0.257,0.044,0.527-0.085,0.761l-9.532,17.304
							c-0.175,0.319-0.512,0.517-0.877,0.517c-0.169,0-0.33-0.042-0.481-0.125c-0.234-0.129-0.403-0.341-0.478-0.597
							C122.393,194.397,122.423,194.127,122.552,193.893z"/>
					</g>
				</g>
			</g>
		</g>
	</g>
</g>
</svg>
